<?xml version="1.0" standalone="no"?>
<!DOCTYPE svg PUBLIC "-//W3C//DTD SVG 1.1//EN" "http://www.w3.org/Graphics/SVG/1.1/DTD/svg11.dtd" >
<svg xmlns="http://www.w3.org/2000/svg">
<metadata></metadata>
<defs>
<font id="baddogregular" horiz-adv-x="527" >
<font-face units-per-em="1000" ascent="800" descent="-200" />
<missing-glyph horiz-adv-x="269" />
<glyph unicode=" "  horiz-adv-x="269" />
<glyph unicode="&#x09;" horiz-adv-x="269" />
<glyph unicode="&#xa0;" horiz-adv-x="269" />
<glyph unicode="!" horiz-adv-x="216" d="M0 55q0 5 7 10t8 6q1 3 5.5 30t12.5 40t26 13t38 -18q20 -17 20 -39q0 -30 -32 -84q-7 -13 -30 -13q-6 0 -9 1q-28 7 -42 43zM170 640q32 0 35 -13v-22q0 -50 -23.5 -139.5t-27.5 -109.5q-2 -10 -1.5 -36t-5 -41.5t-23.5 -26.5q-14 -9 -32 -9q-20 0 -35.5 9t-15.5 28 q0 5 5 30q7 24 22 99.5t32 116.5q6 13 9.5 42.5t10.5 42.5q14 29 50 29z" />
<glyph unicode="&#x22;" horiz-adv-x="207" d="M0 584q0 18 12.5 30t30.5 12q17 0 25 -15q5 -12 7 -27.5t3.5 -35t2.5 -28.5q1 -2 1 -5q0 -17 -15 -31t-32 -14q-9 0 -14 3t-6.5 9t-2 10.5t0 13.5t0.5 12q0 12 -6.5 33t-6.5 33zM121 579q0 30 10 43q13 18 36 18q9 0 11 -7q13 -39 13 -76q0 -28 -13 -62q-14 -37 -40 -37 q-13 0 -19.5 10.5t-6.5 24.5q0 10 3.5 27.5t4.5 24.5q1 11 1 34z" />
<glyph unicode="#" horiz-adv-x="581" d="M64 412q6 0 17 -1t16 -1q28 0 38 21q9 23 10.5 73t5.5 68q5 21 44 25q2 0 8 0.5t9 0.5q6 0 9.5 -3t7.5 -9t6 -8q2 -6 2 -20q0 -18 -8 -52.5t-8 -52.5q0 -10 1 -15q1 -1 2 -5.5t3 -6.5t5 -2q2 0 50 6q62 12 94 14q7 24 7 52q0 12 -1.5 37t-1.5 37q0 70 37 70 q18 0 30.5 -12t12.5 -30q0 -6 -2 -19.5t-2 -20.5q0 -10 -2.5 -30.5t-2.5 -31.5q0 -10 2 -17t4 -12t7.5 -8.5t8.5 -5t12 -2.5t12 -1h14h14q46 0 46 -37q0 -21 -11 -28.5t-33 -7.5q-6 0 -20 1t-21 1q-23 0 -33.5 -7.5t-10.5 -30.5q0 -30 21 -30q6 0 18 3t19 3q11 0 19 -8.5 t8 -19.5q0 -8 -4 -12q-6 0 -10 -4q1 -2 1.5 -4.5t1 -3.5t2.5 -2t5 0q-7 -12 -18 -17t-30.5 -8.5t-24.5 -4.5q-1 -1 -7 -5.5t-7 -7.5q-2 -8 -2 -30q0 -26 8 -76t8 -75q0 -21 -4 -37q-10 -2 -16 -2q-39 0 -51 35q-13 42 -13 99q0 11 0.5 23.5t1.5 28t1 24.5q-19 3 -39 3 q-23 0 -118 -17q-2 -12 -5 -41t-5 -47t-7.5 -42t-13.5 -41q-7 -15 -21 -15q-16 0 -31 14.5t-18 30.5q-1 5 -1 14q0 15 7 43.5t7 43.5q0 35 -25 35q-7 0 -20 -2t-19 -2q-15 0 -23 6q-10 0 -10 9q0 4 5 5t5 3q-2 2 -11.5 5t-16 7t-6.5 8q0 5 4 13q4 7 9.5 12t10 7.5t13.5 3.5 t13 1h15h13q30 0 43 10q8 5 8 25q0 35 -25 35q-18 0 -36 -14t-24 -14q-2 0 -10 4q-37 30 -37 53q0 21 21 33.5t43 12.5zM214 309q0 -21 11 -26q13 -4 43 -4q44 0 91 18q17 7 17 39q0 20 -10 24q-19 8 -51 8q-61 0 -93 -31q-8 -8 -8 -28z" />
<glyph unicode="$" horiz-adv-x="292" d="M261 487q0 -12 -10 -22.5t-22 -10.5q-13 0 -42 16t-44 16q-20 0 -38.5 -22.5t-18.5 -43.5q0 -16 14 -25q16 -10 57.5 -15t58.5 -15q3 -2 15 -11q31 -25 48 -52q9 -16 9 -29q0 -23 -26 -60q-11 -14 -38.5 -30.5t-34.5 -28.5q-14 -21 -22 -73t-26 -74q-5 -7 -17 -7 q-19 0 -28 7q-1 1 -2 6t-2.5 10.5t-2.5 7.5q-5 13 -5 25t5 37t5 38q0 15 -5 23q-4 8 -43 27t-39 42q0 16 13 29t29 13q10 0 39 -21t53 -21q18 0 37.5 15t19.5 32q0 8 -5 15q-19 26 -75.5 30.5t-76.5 21.5q-41 35 -41 62q0 38 19 69.5t54 67.5q23 23 27 28q2 2 2 30 q0 18 12.5 32t30.5 14q15 0 28 -8.5t13 -22.5q0 -8 -5 -23t-5 -19q0 -16 10 -20q60 -26 71 -46q4 -7 4 -14z" />
<glyph unicode="%" horiz-adv-x="739" d="M0 471q0 50 27 102q3 6 10 11.5t11 8t15 8t12 5.5q7 5 9 5q4 0 6 -4q0 -4 5 -4q2 0 3 2.5t2 2.5q2 3 9 3h9q52 -10 100 -44t77 -80q10 -17 10 -37q0 -35 -21 -73q-17 -28 -50 -43t-69 -15q-114 0 -156 107q-9 21 -9 45zM177 400q40 0 40 22q0 18 -38 53t-55 35 q-12 0 -23 -13t-11 -26q0 -11 5 -18q1 -2 5 -6l6 -6q25 -31 46 -37q11 -4 25 -4zM737 162q0 -34 -19.5 -70t-49.5 -46q-6 -2 -13 -5l-10.5 -4.5t-10 -2.5t-15.5 -1q-44 0 -98 35q-36 24 -36 78q0 23 6 65q7 62 75 125q7 12 27 12q2 0 3 -1q57 -32 99 -80.5t42 -104.5z M596 243l-3 -1q-25 -15 -25 -48q0 -25 14 -49.5t37 -24.5q13 0 21.5 9.5t8.5 22.5q0 22 -34 63q-1 2 -5 9t-8 13t-6 6zM311 0q-12 0 -12 27q0 29 4 33q3 34 9 67q26 177 82 323l33 78q5 12 9.5 40.5t12.5 42.5q18 29 36 29q9 0 23 -11.5t21 -13.5q-9 -29 -44 -129.5 t-52.5 -166.5t-24.5 -134q-4 -40 -16 -110q-4 -27 -7 -37q-4 -17 -13.5 -23.5t-29.5 -9t-28 -5.5h-3z" />
<glyph unicode="&#x26;" horiz-adv-x="266" d="M254 489q-10 -21 -14 -21q-20 -9 -35 -9q-9 0 -21 5q-12 6 -33 6q-18 0 -26 5q-2 2 -4 2q-5 0 -9.5 -9t-4.5 -14q0 -10 6 -20.5t16 -10.5q30 0 45 -4l14 -14q2 -6 2 -11q0 -27 -30 -38q-5 -1 -16.5 -2.5t-20.5 -4t-15 -6.5q-21 -18 -21 -44q0 -12 7 -26t17 -21 q2 -1 7.5 -4.5t10 -6.5t7.5 -3q1 0 16 6.5t27 6.5q15 0 36.5 -8.5t21.5 -21.5q0 -2 -4 -10q-7 -13 -35.5 -19.5t-33.5 -19.5q-6 -15 -6 -34q0 -11 2.5 -33.5t2.5 -34.5q0 -22 -8 -46t-25 -24q-7 0 -19 2q-2 1 -12 10t-19 7q4 20 4 44q0 40 -14 116q-3 13 -14.5 23.5 t-23.5 18t-22 26t-10 46.5q0 19 7 43q2 6 17.5 31t15.5 30q0 7 -13.5 24.5t-13.5 28.5q0 10 18 49q8 15 33.5 30t33.5 26q3 5 3 35q0 21 13.5 35.5t34.5 14.5q16 0 28 -10t12 -26q0 -8 -3.5 -23.5t-3.5 -23.5q0 -15 11 -23.5t25 -10.5t25 -10.5t11 -23.5z" />
<glyph unicode="'" horiz-adv-x="172" d="M121 579q0 30 11 43q13 18 35 18q10 0 11 -7q13 -39 13 -76q0 -32 -13 -62q-14 -37 -39 -37q-13 0 -19.5 10.5t-6.5 24.5q0 9 3.5 26.5t3.5 25.5q1 5 1 34z" />
<glyph unicode="(" horiz-adv-x="256" d="M284 600q0 -16 -9 -22q-2 -2 -6 -3.5t-6 -2.5q-18 -9 -40 -26q-11 -9 -21.5 -21t-18.5 -22t-16 -26t-13 -25t-12 -29t-9.5 -27t-8.5 -30t-7.5 -27.5t-7 -30t-6.5 -27.5q-5 -28 -5 -49q0 -80 47 -131q6 -7 25 -18.5t30.5 -23.5t11.5 -28q0 -5 -3 -8.5t-6.5 -6.5t-9.5 -5.5 t-10 -3.5t-11 -3t-8 -2q-10 -2 -17 -2q-48 0 -89 59q-58 81 -58 157q0 113 65 259q41 92 172 164q1 1 4 1t9 -2.5t10 -2.5q12 0 18 -11t6 -24z" />
<glyph unicode=")" horiz-adv-x="257" d="M41 640q13 0 25 -10q45 -38 84.5 -90.5t59.5 -104.5q28 -75 27 -146v-8q-1 -72 -34.5 -140t-88.5 -123q-18 -18 -50 -18q-12 0 -23.5 7.5t-11.5 18.5q0 4 3 9q12 25 51 70.5t51 76.5q24 60 24 99q0 58 -24 116q-18 44 -67.5 106.5t-62.5 82.5q-4 8 -4 13q0 13 14 27 t27 14z" />
<glyph unicode="*" horiz-adv-x="407" d="M171 452q-5 23 -42.5 56.5t-37.5 44.5q0 10 14 17.5t26 7.5t17 -4q7 -5 23.5 -37t37.5 -32q5 0 7 1q14 17 33 52.5t26 46.5q7 13 21 26q6 8 21 8q14 0 18 -7t5 -17.5t7 -15.5q-12 -12 -22.5 -28.5t-23.5 -41t-18 -32.5q-1 -1 -1 -4q0 -4 8.5 -6t8.5 -6q6 8 24 8 q17 0 27 8q3 2 10 2q13 0 19 -9q14 -16 14 -27q0 -5 -4 -11q-11 -12 -50 -17.5t-53 -17.5q10 -17 41.5 -44.5t39.5 -47.5q0 -1 1.5 -4t1.5 -4q0 -29 -10 -32q-7 -7 -19 -7q-5 0 -7 1q-14 11 -80 93q-7 9 -18 9t-14 -12q-8 -39 -10 -42q-2 -5 -6 -13.5t-6 -12.5 q-2 -6 -6.5 -18t-7.5 -19t-8 -16.5t-11.5 -17t-14.5 -12.5t-16 -5q-10 0 -15 5t-5.5 10.5t-4 9t-11.5 2.5q4 20 30 62t25 71v5q-1 0 -3.5 0.5t-3.5 0.5q-17 0 -50 -16t-50 -16q-19 0 -34 15q-1 1 -5 3.5t-6.5 5t-2.5 4.5q0 12 9 23t21 15q6 3 20 4.5t18 2.5q16 4 50 16 t53 16z" />
<glyph unicode="+" horiz-adv-x="260" d="M118 519q5 0 7 -1t9 -3.5t9.5 -4t6 -5t3.5 -8.5q4 -28 4 -42t-2 -41.5t-2 -41.5q42 -7 125 -7q-3 -3 -3 -7t6.5 -10t6.5 -11q0 -15 -28 -32q-12 -8 -29 -8q-7 0 -22 2t-22 2q-19 0 -27 -14q-8 -17 -8 -50t-7 -58t-34 -34q0 13 -18 26t-18 24q0 7 2 22.5t2 23.5 q0 25 -7 46q-14 -6 -28 -6q-1 0 -43 6v9q0 3 -0.5 10.5t-0.5 11.5q0 18 10.5 26t23.5 8t26.5 3.5t18.5 13.5q4 8 5.5 19t1.5 18.5t-0.5 21t-0.5 18.5q0 23 7.5 48t25.5 25z" />
<glyph unicode="," horiz-adv-x="210" d="M95 185q6 0 11 -3q26 -11 49 -37.5t23 -51.5q0 -11 -11.5 -28.5t-12.5 -27.5q0 -4 -1 -17t-2 -21t-3.5 -18t-7.5 -15q-1 -1 -11.5 -13t-13 -15t-12 -12.5t-15 -12.5t-14.5 -8.5t-17.5 -7.5t-18.5 -2q-17 0 -32 7.5t-15 22.5t11.5 24.5t26 14t26 15t11.5 26.5q0 9 -10 12 q-29 4 -38 33q-5 28 -5 33q0 22 16 35q4 4 16 31q20 36 50 36z" />
<glyph unicode="-" horiz-adv-x="371" d="M121 350q27 0 79 4t79 4q16 0 30 -13.5t14 -29.5q0 -17 -21 -24q-67 -22 -155 -22q-85 0 -138 19q-12 4 -12 16q0 20 17 33q17 16 49 16q9 0 28.5 -1.5t29.5 -1.5z" />
<glyph unicode="." horiz-adv-x="198" d="M97 167q20 0 41 -20.5t26 -40.5q2 -7 2 -23q0 -36 -25.5 -59.5t-61.5 -23.5q-27 0 -54 16.5t-27 40.5q0 33 44 72q13 10 23 23q13 15 32 15z" />
<glyph unicode="/" horiz-adv-x="332" d="M321 640q20 0 34 -16t14 -37q0 -19 -6 -32q-3 -9 -13 -24t-13 -21q-9 -19 -25 -52.5t-29.5 -61.5t-25.5 -52q-10 -19 -75.5 -146.5t-98.5 -194.5q-9 -3 -18 -3q-22 0 -40 12t-18 33q0 6 4 18q-1 3 -5 6t-6 6q4 5 10 6.5t9 4.5q4 8 34.5 61t44.5 83q21 45 66 129.5 t65 126.5q31 66 40 89q12 33 15 40q9 25 37 25z" />
<glyph unicode="0" d="M430 71q-27 -29 -39 -37q-20 -13 -71.5 -23t-82.5 -10q-103 0 -168.5 67t-65.5 170q0 118 80 256q83 146 188 146q18 0 26 -2q6 -3 11 -8q12 -9 18 -11q43 -14 53 -19q51 -26 85 -75t48 -109q12 -49 12 -100q0 -145 -94 -245zM321 522q-35 25 -66 25q-62 0 -118 -154 q-35 -95 -35 -159q0 -99 78 -141q32 -17 69 -17q59 0 101 39.5t59.5 91t17.5 104.5q0 64 -27.5 119.5t-78.5 91.5z" />
<glyph unicode="1" d="M374 315q-2 -25 -2 -79t-1 -77q-6 -100 -30 -145q-6 -14 -39 -14q-30 0 -33 19q-2 17 -2 51q0 62 16 186t16 186q0 45 -6 87q-39 0 -62 -25q-10 -12 -15 -17q-9 -9 -13 -11q-10 -5 -27 -5q-37 0 -37 23q0 13 18 39q34 45 84.5 76t102.5 31q24 0 39 -5q5 -37 5 -92 q0 -51 -14 -228z" />
<glyph unicode="2" d="M491 38q-6 -16 -26.5 -25t-43.5 -9q-21 0 -44 6q-66 14 -104 14q-17 0 -25 -1q-32 -4 -41 -38q-3 -9 -5 -29v-30q0 -17 -0.5 -21.5t-2.5 -17.5t-6 -17.5t-12 -9.5t-20 -5q-34 0 -62 24q-14 14 -14 42q0 24 12 48q6 10 6 21q0 4 -1 8.5t-2.5 7.5t-4.5 6.5t-4.5 5.5t-6 6 t-6 5t-7 4.5t-6.5 4.5q-29 22 -29 46q0 26 42 30q6 1 12.5 1.5t15 1t12.5 0.5q27 4 35 11q37 32 69.5 97t47.5 113t32 116q7 26 7 30q0 11 -6.5 26t-17.5 15q-4 0 -24 -4q-35 -8 -80 -49q-47 -43 -68 -52q-6 -3 -13 -3q-12 0 -24 12q-2 2 -5 4.5t-4 3.5q-2 1 -5 4 q-8 5 -8 15q0 18 9 27q6 8 44 40q51 45 97 66.5t106 21.5h24q27 -3 52.5 -16.5t27.5 -32.5v-12q0 -97 -40 -217.5t-101 -200.5q19 -31 47 -34q5 -1 48 -1q18 0 30 -6q12 -4 36 -4q22 -2 27 -4q12 -5 21 -17.5t9 -23.5v-4z" />
<glyph unicode="3" d="M234 0q-98 0 -165 62q-12 12 -12 25q0 19 17 34.5t37 15.5q16 0 27 -11q42 -39 106 -39q57 0 96 31.5t39 87.5q0 39 -22 81.5t-56 59.5q-11 6 -21 6q-11 0 -31 -6q-25 -5 -26 -5q-16 0 -27.5 13t-11.5 31q0 31 23 39q34 11 68.5 37t34.5 54q0 23 -21.5 35t-45.5 12 q-33 0 -114 -27q-17 -7 -36 -7q-18 0 -29.5 9t-11.5 24q0 23 27 38q31 14 76 21q74 11 82 13q32 6 48 6q48 0 92.5 -25t44.5 -65q0 -25 -15 -58q-6 -12 -18.5 -34.5t-16.5 -29.5q103 -110 103 -224q0 -89 -73 -146.5t-168 -57.5z" />
<glyph unicode="4" d="M411 299q-21 -4 -42 -11q-25 -10 -32 -24q-25 -44 -25 -117q0 -19 2 -55t2 -54q0 -26 -6.5 -32t-34.5 -6q-35 0 -40 21q-8 30 -8 82q0 16 1 48t1 47q0 45 -7 82q-5 0 -9.5 0.5t-7 1t-4.5 0.5q-15 0 -45 -4.5t-45 -4.5q-40 0 -40 40q0 39 6.5 82.5t17.5 96t15 81.5 q1 4 2 13.5t2 14.5q1 7 19.5 10.5t30.5 3.5q10 0 18 -3q5 -1 11 -10t6 -14v-2q-6 -26 -10 -99q-4 -63 -13 -95q-2 -6 -2 -12q0 -14 10.5 -25.5t25.5 -11.5q13 0 19 10q32 41 39 124q2 15 4 42t4 48t6 38q3 15 18.5 25t33.5 10t31.5 -10t13.5 -24q0 -1 -0.5 -3t-0.5 -3 q-3 -22 -23 -89q-18 -54 -18 -94q0 -30 10 -54q3 -8 14 -10q3 -1 7 -1q9 0 26.5 2t25.5 2q11 0 23 -10.5t12 -20.5q0 -3 -0.5 -5.5t-2.5 -4.5l-3.5 -3.5t-5 -3t-5 -2.5t-6 -2t-6.5 -1.5t-7.5 -2t-7.5 -1.5z" />
<glyph unicode="5" d="M358 23q-43 -22 -96 -22q-70 0 -181 46q-33 13 -41 17q-11 6 -19.5 19.5t-8.5 24.5q0 30 34 30q28 0 50 -11q6 -3 11 -10q13 -13 30 -19q5 -2 11 -4q63 -24 99 -24q32 0 56 17q40 28 73 67t33 78q0 12 -8 34q-16 41 -82 62q-5 1 -15.5 4t-15.5 5q-70 21 -92 21 q-51 0 -60 -34q-2 -8 -3 -11q-1 -1 -1 -4t-1 -5q-3 -6 -9 -8q-23 -7 -38 -7q-42 0 -42 58q0 11 3 24t5.5 22t10.5 24.5t11 20.5t13.5 23t11.5 19q35 60 35 147q0 5 6 7q4 1 11 2t11 2q16 2 25 2q24 0 89 -18q22 -6 96 -11q58 -2 86 -17q15 -8 15 -23t-12 -23t-31 -8 q-25 0 -73.5 8t-73.5 8q-20 0 -36 -4q-21 -5 -33 -32t-12 -48q0 -26 19 -36q13 -7 58 -23q13 -4 37 -11.5t44 -14t37 -13.5q62 -27 95 -69q25 -34 25 -75q0 -58 -47.5 -115.5t-109.5 -91.5z" />
<glyph unicode="6" d="M481 125q-26 -60 -81 -92.5t-124 -32.5q-56 0 -105 21q-32 13 -55.5 41.5t-26.5 59.5q-1 3 -1 8q0 28 22 88q23 59 23 91q0 25 -35 28q-4 1 -11 1t-10 1q-10 0 -13 1q-10 4 -20.5 19.5t-10.5 26.5q0 22 51 34q30 6 48 8q30 6 40 12q34 17 62 73q8 15 20.5 44t18.5 40 q13 23 25 32.5t33 10.5h7q20 0 43 -10t23 -27q0 -6 -3 -9q-11 -19 -35 -57q-34 -55 -71 -123q89 -52 144 -106t55 -121q0 -29 -13 -62zM320 317q-26 14 -48 14q-36 0 -50 -39q-6 -18 -32 -75q-21 -50 -21 -79q0 -30 20.5 -56t56.5 -26q54 0 109.5 47t55.5 94q0 37 -26 68.5 t-65 51.5z" />
<glyph unicode="7" d="M289 640q14 0 38.5 -18.5t38.5 -19.5q24 -3 37 -11q2 -1 12.5 -7t16 -9.5t11 -10t5.5 -13.5q0 -8 -4 -13q-12 -24 -48 -24q-6 0 -17.5 0.5t-17.5 0.5q-13 0 -25 -3q-17 -130 -56 -299q-1 -3 -10 -41.5t-16.5 -69.5t-7.5 -33q0 -4 0.5 -14t0.5 -15q0 -40 -47 -40 q-8 0 -22 2q-9 1 -23 11.5t-14 18.5q0 2 6 38q7 40 18 86q7 28 21 82t24 97t17 83l9 48q0 19 -26 19q-14 0 -40.5 -8.5t-40.5 -8.5q-20 0 -35 11t-15 31q0 9 2 13q2 11 10 16.5t14.5 7t20.5 2.5q4 1 12 1.5t12 0.5q24 4 88 28q9 3 12.5 19t11 29t27.5 13z" />
<glyph unicode="8" d="M407 338l-2 -3q-5 -7 -5 -14q0 -14 15 -29l8 -8h1q0 -2 -1 -8.5t-1 -12.5q3 -2 6.5 -4.5t4.5 -3.5l2 -2q1 -5 1 -51q0 -121 -68 -156q-92 -46 -151 -46q-20 0 -43 5q-124 23 -124 132q0 94 107 194q-48 47 -48 107q0 81 59 156q36 46 102 46q35 0 108 -25q55 -16 72 -38 q27 -38 27 -82q0 -70 -70 -157zM362 555q-3 1 -9 2.5t-9 2.5q-8 3 -26 11q-21 7 -31 7q-12 0 -26 -7q-61 -29 -61 -143q0 -33 24 -52.5t56 -19.5q57 0 93 82q13 35 14 36q6 18 6 28q0 14 -8.5 32t-22.5 21zM290 295q-36 0 -73 -27q-32 -24 -51.5 -59.5t-19.5 -74.5 q0 -75 65 -75q60 0 101 42t41 101q0 36 -15 64.5t-48 28.5z" />
<glyph unicode="9" d="M144 51q5 0 35 10q2 1 5 1.5t5 0.5q63 10 88 88q4 12 16 65q7 35 22 69q-26 0 -62 -2t-50 -2q-68 0 -91 38q-21 37 -21 83q0 80 65 190q28 48 103 48q23 0 45 -6q3 -1 33 -7t45 -11q43 -14 43 -42q0 -2 -0.5 -4t-0.5 -4q0 -6 10 -10q-1 -3 -3 -8.5t-3 -8.5q-7 -15 -8 -30 q-1 -14 -1.5 -30.5t-1 -37t-0.5 -31.5q-2 -59 -12 -93q-10 -31 -25 -91.5t-23 -87.5q-17 -52 -52 -89t-84 -47q-12 -2 -16 -2q-44 0 -67 36l1 2q0 1 5 13zM333 560h1q1 1 2.5 1.5t4 2t5.5 2.5q-23 35 -54 35q-35 0 -58 -29q-36 -48 -49 -112q-13 -60 -13 -68q0 -36 31 -49 q26 -10 44 -10q27 0 46.5 16.5t28.5 42.5t13 50t4 48q0 33 -6 70z" />
<glyph unicode=":" horiz-adv-x="210" d="M16 385q0 29 16 43q33 28 73 28q34 0 57 -20.5t23 -53.5q0 -20 -14 -40q-1 -2 -8 -11t-9.5 -11.5t-8.5 -8t-12.5 -7t-14.5 -1.5q-56 0 -79 13q-23 14 -23 49v20zM97 167q20 0 41 -20.5t26 -40.5q2 -7 2 -23q0 -36 -25.5 -59.5t-61.5 -23.5q-27 0 -54 16.5t-27 40.5 q0 33 44 72q13 10 23 23q13 15 32 15z" />
<glyph unicode=";" horiz-adv-x="269" d="M95 185q6 0 11 -3q26 -11 49 -37.5t23 -51.5q0 -11 -11.5 -28.5t-12.5 -27.5q0 -4 -1 -17t-2 -21t-3.5 -18t-7.5 -15q-1 -1 -11.5 -13t-13 -15t-12 -12.5t-15 -12.5t-14.5 -8.5t-17.5 -7.5t-18.5 -2q-17 0 -32 7.5t-15 22.5t11.5 24.5t26 14t26 15t11.5 26.5q0 9 -10 12 q-29 4 -38 33q-5 28 -5 33q0 22 16 35q4 4 16 31q20 36 50 36zM49 367q0 9 3 19q19 55 112 74q10 2 15 2q29 0 49.5 -22.5t20.5 -52.5q0 -46 -29 -81t-74 -35q-36 0 -66.5 29.5t-30.5 66.5z" />
<glyph unicode="&#x3c;" horiz-adv-x="366" d="M0 308q0 3 1 5q4 5 5.5 9.5t2 6.5t0 8.5t-0.5 10.5q0 8 25 21q13 7 50.5 25.5t56 28t46.5 26.5t50 34q2 2 9 11t12 11q41 11 48 11q20 0 30 -19q1 -2 8.5 -9t7.5 -13t-8.5 -23t-14.5 -19q-6 -5 -18 -5q-3 0 -7.5 1t-6.5 1q-4 0 -4 -5t-3 -6q-32 -6 -41 -10 q-16 -7 -51.5 -30.5t-56.5 -30.5q-9 -7 -9 -14l1 -2v-2q8 -11 18.5 -22.5t18 -19.5t22 -20.5t20.5 -17.5t23.5 -19t21.5 -17q4 -4 11.5 -10.5t13.5 -12t11 -10.5q6 -6 6 -12q0 -14 -17.5 -28t-31.5 -14q-4 0 -6 1q-111 42 -185 128q-6 6 -20 11t-19 10v14q0 5 -9.5 9t-9.5 8 z" />
<glyph unicode="=" horiz-adv-x="299" d="M73 449q45 0 154 -26q3 -1 7.5 -8t11.5 -5q0 -12 -9 -25.5t-20 -16.5q-12 -3 -25 -3q-19 0 -37.5 3.5t-48.5 12t-36 10.5q-11 2 -20 11.5t-9 20.5t10.5 18.5t21.5 7.5zM268 222q0 -5 -1.5 -8.5t-3.5 -5.5t-5.5 -4t-6 -2.5t-8 -1t-8 -0.5h-8h-6.5q-98 0 -181 37 q-25 11 -32 16q-7 4 -7 11q0 15 14.5 24.5t29.5 9.5q16 0 31 -6q31 -9 91.5 -19.5t68.5 -12.5q14 -3 23 -14t9 -24z" />
<glyph unicode="&#x3e;" horiz-adv-x="387" d="M254 370q0 8 -12 18t-29 20t-21 14q-10 8 -23 15.5t-30.5 16t-25.5 13.5q-12 6 -32 22q-8 5 -8 14q0 14 12 30q16 8 27 8q25 0 65 -27.5t56 -32.5l4 -15q1 -3 7 -3q1 0 4.5 0.5t5.5 0.5q4 0 5 -1q2 -2 12.5 -11t16.5 -13q8 -6 31.5 -21.5t36.5 -25.5q17 -15 17 -28 q0 -7 -6 -13q-13 -11 -45.5 -29t-43.5 -26q-17 -13 -50.5 -38t-50.5 -38q-11 -8 -31 -21t-28 -19q-6 -4 -24 -19t-32 -23t-29 -8q-33 0 -33 35q0 15 7 23q13 16 51 35.5t49 27.5q15 11 48.5 31t58.5 39t38 41q2 6 2 8z" />
<glyph unicode="?" horiz-adv-x="410" d="M409 489q0 -75 -80 -155q-1 -1 -34 -31q-8 -7 -10.5 -16t-3.5 -21.5t-3 -19.5q0 -1 -3 -10q0 -1 -2.5 -8.5t-3.5 -9.5t-4 -7.5t-5.5 -7.5t-7 -4t-10.5 -2q-7 0 -22.5 4t-18.5 8q-15 22 -15 60q0 48 30 101l9 15q3 3 14 8t23.5 9.5t15.5 6.5q18 9 29.5 28.5t11.5 40.5 q0 33 -29 51t-64 18q-37 0 -62 -15q-23 -14 -37.5 -39.5t-18.5 -45.5t-8.5 -57t-6.5 -51q-8 -33 -11 -40q-5 -15 -26 -15q-19 0 -36.5 11t-18.5 29q-1 6 -1 18q0 48 23 118.5t51 116.5q40 63 109 63q23 0 51 -10q14 -5 54 -13.5t66 -21.5t39 -39q16 -32 16 -67zM256 97 q16 0 28.5 -11.5t12.5 -27.5q0 -5 -4 -10.5t-4 -12.5q0 -2 0.5 -6.5t0.5 -6.5q0 -10 -15.5 -16t-27.5 -6q-21 0 -35 18.5t-14 39.5q0 20 19 29q24 10 39 10z" />
<glyph unicode="@" horiz-adv-x="554" d="M249 640q67 0 172 -40q11 -5 20.5 -11.5t18.5 -18.5t12.5 -17.5t13.5 -24t11 -20.5q39 -67 39 -119q0 -98 -126 -133q-4 -1 -12 -1q-7 0 -20.5 2.5t-20.5 2.5q-11 0 -20 -10t-14 -22.5t-15 -26t-23 -18.5q-31 -12 -56 -12q-54 0 -80 33.5t-26 88.5q0 52 24 102 q14 30 47.5 48.5t68.5 18.5q36 0 55 -19q9 -9 23.5 -17t20.5 -13q9 -8 11.5 -23.5t2 -28.5t7 -23t24.5 -10q40 0 40 72q0 27 -5 39q-13 35 -25 51q-2 3 -6.5 8t-6.5 7q-21 28 -38 36q-63 30 -112 30q-23 0 -42 -4q-28 -6 -48.5 -26.5t-30 -41.5t-19.5 -53q-25 -77 -25 -144 q0 -100 54 -170q47 -59 110 -69q2 -1 6 -1q10 0 20 5t22.5 15.5t16.5 13.5q15 8 19 12q14 12 36.5 44.5t39.5 45.5q2 -1 5.5 -6t5.5 -5t9 1.5t10 1.5q6 0 18 -1.5t18 -1.5q-18 -108 -161 -172q-37 -16 -75 -16q-80 0 -126 64q-34 8 -58.5 36.5t-36.5 67.5t-17.5 75.5 t-5.5 71.5q0 59 15 115t44 104t79 77.5t112 29.5zM213 295q0 -48 21 -48q4 0 8 2q3 2 11 13q32 41 32 80q0 15 -7.5 32.5t-20.5 17.5q-6 0 -11.5 -7t-9 -14.5t-8 -18t-5.5 -12.5q-10 -20 -10 -45z" />
<glyph unicode="A" horiz-adv-x="340" d="M266 0q-19 0 -25 8t-6 27q0 6 1 28.5t0 33.5l-3 63q-2 32 -15 120q-3 25 -27 25q-5 0 -14.5 -1t-14.5 -1t-13.5 3t-12.5 3q-7 0 -15 -5.5t-11 -12.5q-4 -9 -11 -39q-14 -57 -35 -113q-8 -19 -28 -19q-33 0 -36 20v12q0 30 9.5 61t26.5 71.5t23 58.5q7 21 27 86.5 t36.5 109t37.5 82.5q11 19 40 19q31 0 63 -17q39 -468 47 -542q0 -3 0.5 -9.5t0.5 -9.5q0 -62 -45 -62zM209 460q-2 2 -3.5 5t-3 5.5t-4.5 4.5t-7 2q-10 0 -16.5 -8.5t-11 -23.5t-6.5 -19q-11 -24 -11 -37q0 -23 32 -23t32 36q0 9 -0.5 28.5t-0.5 29.5z" />
<glyph unicode="B" horiz-adv-x="444" d="M55 0q-29 4 -28 33t27 34q5 1 14 2t14 2q9 9 13 25q2 12 2 26.5t-1 33t-1 27.5q0 105 10 176q8 59 8 111q0 40 -3 82q-3 6 -7.5 8.5t-8 3t-10.5 1t-12 1.5q-10 1 -13 2t-10.5 4.5t-10 12.5t-1.5 24q1 31 60 31q54 0 105.5 -7.5t106 -33.5t77.5 -67q14 -26 15 -54v-3 q0 -9 -2 -18t-7 -18.5t-9.5 -17t-13 -18t-12.5 -15t-14 -15.5t-12 -13v-29q10 -14 28.5 -29t31 -26t23 -39t11.5 -70q1 -67 -54.5 -103.5t-128.5 -43.5q-11 -1 -80 -13t-107 -7zM188 518q0 -6 1 -17.5t1 -16.5q0 -10 -2 -31t-2 -32q0 -49 38 -49q33 0 58.5 30.5t25.5 64.5 q0 36 -25 60t-61 24q-18 0 -26 -7.5t-8 -25.5zM180 216q0 -15 -2.5 -44.5t-2.5 -44.5t7 -34q7 0 21 -0.5t20 -0.5q84 0 105 47q8 19 8 40q0 42 -34.5 72t-79.5 38q-17 3 -27.5 0.5t-13.5 -12t-3.5 -17t1 -22.5t1.5 -22z" />
<glyph unicode="C" horiz-adv-x="364" d="M359 47q-18 -35 -75 -38q-13 -1 -48.5 -5t-55.5 -4q-43 0 -74 17q-106 60 -106 211q0 28 3 55q26 187 173 309q57 48 110 48q47 0 54 -16q1 -1 1 -7q0 -16 -16 -26q-14 -9 -42 -22t-33 -16q-48 -24 -71 -61q-9 -15 -25.5 -44.5t-23.5 -41.5q-44 -77 -44 -159 q0 -73 32 -131q26 -47 90 -47q47 0 94 19q11 5 21 5q16 0 29 -8.5t13 -17.5t-6 -20z" />
<glyph unicode="D" horiz-adv-x="346" d="M52 0q-14 0 -25 7.5t-11 20.5q0 14 13 25q9 8 14.5 16.5t7.5 21t2.5 19t0 24t-0.5 23.5q0 24 -1 71.5t-1 72.5q0 34 2.5 102.5t2.5 103.5q0 46 -1 51t-6 14t-5 15q0 34 26 44q20 9 30 9q8 0 50 -29t58 -42q49 -38 75 -88q40 -82 40 -171q0 -64 -20.5 -129t-62.5 -102 q-29 -26 -53.5 -40.5t-36.5 -18.5t-42.5 -9.5t-46.5 -9.5q-1 0 -4 -0.5t-5 -0.5zM132 536q-5 0 -6 -9t0.5 -18t-1.5 -15q0 -2 -2 -110.5t0 -198.5t11 -90q40 0 76 63t39 107q1 13 1 38q0 32 -12.5 83.5t-41 100.5t-64.5 49z" />
<glyph unicode="E" horiz-adv-x="387" d="M59 6q-13 0 -16 25t5 36q5 8 12 10.5t12 2.5t9 3t6 15t1 36q-3 107 -16 132q-4 9 -11.5 11.5t-13 1t-10 1.5t-4.5 12q0 48 2 51q6 3 18 7q22 10 22 79q0 12 -3.5 34.5t-3.5 26.5q-2 42 -2 48t3 26.5t5 44.5q1 12 20.5 21.5t33.5 9.5q8 0 13.5 -1t9.5 -1.5t6.5 -3l4 -4 t2 -7t0.5 -7v-10v-11.5q0 -21 43 -21q16 0 48 1.5t47 1.5q21 0 53.5 -4.5t32.5 -13.5q0 -3 0.5 -9.5t0.5 -9.5t-0.5 -8.5t-2 -8t-4.5 -7t-7.5 -6t-11 -4.5t-16 -3t-21.5 -1.5t-28 0.5q-10 0 -35.5 1.5t-41.5 1.5q-8 0 -24.5 -4t-19.5 -4q-8 -8 -15 -9t-8 -4t-1 -21 q0 -12 2.5 -34t2.5 -33q0 -4 -1.5 -12.5t-1.5 -12.5q0 -7 5.5 -12.5t12.5 -5.5q18 0 53 7.5t53 7.5q48 0 51 -23q4 -29 -26 -43t-77 -21t-58 -12q-12 -12 -12 -25q0 -22 5.5 -69t11.5 -63q13 -16 20 -16q25 0 71 18t70 18q12 0 25 -12.5t13 -26.5q0 -12 -12.5 -22t-34 -17 t-41 -12t-42 -9t-28.5 -6q-78 -21 -156 -21z" />
<glyph unicode="F" horiz-adv-x="429" d="M198 457q0 -9 1 -26.5t1 -26.5q0 -7 7.5 -14.5t15.5 -7.5q12 0 26 2.5t32 7l26 6.5q28 4 43 4q56 0 56 -34q0 -1 -1.5 -10.5t-1.5 -10.5q-14 -19 -26 -20q-8 -1 -24 -1.5t-29 -1.5t-23 -3q-35 -9 -69 -9q-10 0 -20 -9t-11 -20q-2 -28 -2 -35q0 -21 1 -62.5t1 -61.5 q0 -64 -5 -95q-6 -29 -43 -29q-42 0 -42 47q0 16 2 48.5t2 47.5q0 3 -0.5 9t-0.5 8q0 10 3.5 34t2.5 37q-2 32 -12.5 47.5t-22 16t-22.5 2.5t-14 9q-2 4 -2 20q0 28 17 39q6 4 19 5.5t21.5 6.5t9.5 18q1 5 5.5 30t4.5 38q0 29 -13 42t-31 14.5t-36 1.5t-31 7.5t-13 28.5 q0 15 9 28t23 13q7 0 21.5 -1t21.5 -1q11 0 70.5 4.5t73.5 -2.5q7 -1 36 0l29 2q20 0 52 3t52 3q53 0 53 -26q0 -1 -1 -2.5t-1 -2.5q3 -30 -34.5 -41.5t-99 -14t-81.5 -8.5q-26 -8 -26 -54z" />
<glyph unicode="G" horiz-adv-x="405" d="M243 569q-21 0 -43.5 -16t-35.5 -35q-76 -111 -76 -219q0 -48 15 -93q9 -24 28 -44t42 -20q16 0 33.5 15t17.5 30q0 5 -3 11q-36 120 -36 194q0 10 12 16.5t22 6.5q12 0 42 -13q14 -7 16 -19q0 -3 4 -66t14 -89q6 -15 28 -27.5t22 -19.5t-8.5 -21t-9.5 -22q-4 -22 -4 -33 q0 -21 9.5 -62t9.5 -63q0 -27 -9 -36.5t-36 -9.5q-14 0 -23 4t-14 7t-7.5 14t-3 15t0 20t0.5 19q0 68 -56 68q-7 0 -21 -1t-22 -1q-13 0 -22 4q-42 17 -75 49.5t-43 73.5q-11 50 -11 98q0 125 69 236q36 53 70 73q51 27 99 27q69 0 99 -55q4 -7 15.5 -26t17.5 -30t12 -27.5 t6 -30.5q0 -7 -1 -11q-13 -10 -29 -10q-14 0 -27.5 12.5t-21.5 25t-19 34.5t-14 27q-12 20 -33 20z" />
<glyph unicode="H" horiz-adv-x="478" d="M385 292q0 -36 8 -110t8 -111v-11.5v-11.5t-0.5 -10.5t-1.5 -10.5t-3 -8.5t-5 -8t-7 -5.5t-10 -4t-14 -1q-28 0 -39.5 13.5t-11.5 42.5q0 18 4.5 54.5t4.5 54.5q0 102 -22 163q-4 11 -22 11q-10 0 -18.5 -2t-14 -7.5t-10 -9.5t-7 -13.5t-4.5 -14t-2.5 -17t-0.5 -16v-18 v-15.5q0 -23 2 -67.5t2 -66.5q0 -18 -5.5 -24t-23.5 -6q-32 0 -44 13.5t-12 45.5q0 25 3 74.5t3 73.5q0 30 -19 52q-40 -10 -62 -10q-25 0 -42.5 12.5t-17.5 36.5q0 19 15.5 30.5t35.5 11.5q10 0 26 -6.5t26 -6.5q23 0 28.5 12.5t5.5 37.5q0 9 2 26t2 25q0 10 -0.5 30 t-0.5 29q0 16 1 25.5t4.5 23.5t12.5 21t24 7q27 0 35.5 -16t8.5 -45q0 -17 -3 -50.5t-3 -50.5q0 -15 0.5 -22.5t3.5 -20.5t10.5 -19t20.5 -6q18 0 28.5 10t14 29t3.5 34.5t-1.5 38.5t-1.5 30q0 102 54 102q26 0 36 -12.5t10 -39.5q0 -20 -6 -61.5t-6 -62.5q0 -25 11.5 -40 t25 -19.5t25 -12.5t11.5 -21q0 -7 -4.5 -11t-9 -5t-13.5 -2t-10 -1q-25 -3 -31.5 -17t-6.5 -43z" />
<glyph unicode="I" horiz-adv-x="405" d="M204 20q-13 0 -18 0.5t-13.5 2.5t-11.5 7.5t-3 14.5q0 4 -1 6t-4 2.5t-5.5 0.5t-6.5 -0.5t-7 -0.5q-35 0 -56 -3q-20 -2 -31 -2q-13 0 -18.5 0.5t-13.5 3.5t-11.5 11t-3.5 21q0 16 9 26.5t25 14t29.5 5t31.5 1t22 -0.5q23 3 45 13q5 42 5 73q0 32 -3.5 111t-3.5 110 q0 5 0.5 13.5t0.5 12.5q0 19 -19 19q-14 0 -54 -6.5t-55 -6.5q-12 0 -18.5 9.5t-7.5 20t-1 28.5q0 1 0.5 3t0.5 3q7 9 20.5 14t33.5 9t25 6q12 2 17 3q3 0 10 0.5t11 0.5q24 4 29 22q5 19 47 24q17 2 25.5 -2.5t25.5 -26.5q8 -10 23 -10.5t35 3.5t29 4q42 -2 55 -20 q1 -2 1 -33q0 -14 -22.5 -21t-41.5 -7q-13 0 -37 2.5t-36 2.5q-7 0 -14 -7.5t-8 -14.5q-1 -8 -1 -25q0 -38 7.5 -136.5t7.5 -135.5v-23q0 -20 24 -32q9 -1 49.5 3t62 -3t18.5 -33q1 -13 -8 -21.5t-23 -11.5t-31 -4t-33 -0.5t-28 -0.5q-13 -1 -18 -2.5t-10.5 -6t-7.5 -13.5 q-3 -17 -40 -17z" />
<glyph unicode="J" horiz-adv-x="199" d="M197 553q0 -6 -2 -16q-5 -21 -23.5 -38t-38.5 -17q-1 0 -5 -0.5t-5 -0.5q-18 0 -39 14q-44 26 -44 64q0 26 13.5 48t37.5 28q17 5 43 5q20 0 45 -5q1 -7 9.5 -36.5t8.5 -45.5zM195 41q-1 -4 -4 -12.5t-4 -13.5q-25 -78 -49 -107q-45 -54 -109 -54q-25 0 -50 14t-25 41 q0 12 6.5 18t12.5 6.5t19 0.5q4 0 30 -7q9 -3 36 18q29 23 41.5 56t19.5 85q4 25 4 57q0 37 -9 110.5t-9 110.5q0 45 7 53q10 13 36 13q30 0 32 -23q1 -13 4 -39t4 -39q12 -124 12 -187q0 -80 -5 -101z" />
<glyph unicode="K" horiz-adv-x="409" d="M372 99q-14 0 -22 9q-36 42 -52.5 60t-50 45t-67.5 41q-8 0 -15.5 -7t-7.5 -14q0 -11 5 -64q1 -15 4 -42.5t5 -50t3 -42.5v-2q1 -13 -12 -22.5t-27 -9.5q-33 0 -33 68q0 9 0.5 27t0.5 26q0 39 -8 55q-5 10 -34 13q-13 10 -15 31q4 8 23 31.5t19 46.5q0 38 -3 97t-3 89 q0 7 -1.5 21t-1.5 21q0 10 -1 30t-1 30q0 9 2 29q1 12 12.5 18.5t24.5 6.5q12 0 18 -3q2 -1 2.5 -4.5t0.5 -8v-5.5q5 -43 5 -73v-48q0 -74 14 -129q18 7 27 19q6 9 17 35.5t22 38.5q2 3 21.5 22.5t24.5 28.5q2 3 6.5 12.5t9 16t9.5 9.5q21 12 46 12q26 0 26 -23 q0 -11 -12 -29q-3 -4 -9 -11t-7 -8q-5 -5 -17 -21t-20 -24q-15 -13 -22 -22q-27 -41 -36 -56q-6 -11 -6 -41q0 -40 53 -73q93 -58 121 -126v-3l1 -2q0 -11 -13.5 -18t-25.5 -7z" />
<glyph unicode="L" horiz-adv-x="355" d="M166 48q-1 -1 -7 -5.5t-9 -8.5t-3 -8q0 -17 8.5 -33.5t8.5 -33.5q0 -29 -18 -41q-9 -6 -27 -6q-16 0 -30 7q-8 4 -12.5 12.5t-5 14.5t0 20.5t0.5 16.5q0 9 -3 9t-12 5q-5 5 -21 16t-26 21t-10 21q0 21 23.5 29t25.5 23q4 22 4 30q0 26 -5 109t-9 106q-3 20 -9.5 59.5 t-10 70.5t-3.5 60q0 43 8 75q5 23 37 23t37 -23q6 -31 9.5 -65t6 -79.5t4.5 -66.5q5 -58 14 -101q2 -8 2 -12q0 -5 -1 -73t-1 -72q0 -27 21 -33q20 -5 36 -5q21 0 61.5 9t60.5 9q48 0 48 -30q0 -6 -5 -13q-19 -19 -51.5 -25.5t-74.5 -7t-62 -4.5z" />
<glyph unicode="M" horiz-adv-x="540" d="M152 534q0 -45 2 -70t17.5 -59t45.5 -49q10 0 18 7t10 18q2 25 20.5 72.5t21.5 73.5q4 5 10.5 10t10.5 10.5t4 16.5q0 9 -6.5 25.5t-6.5 23.5v2q12 24 41 24q16 0 21 -8q19 -32 38 -81t29 -81t28.5 -99t22.5 -80q34 -117 42 -252v-3q1 -13 -16 -24t-32 -11q-17 0 -20 16 q-8 32 -15 95l-8 72q-12 94 -42 164q-5 10 -8 32t-10.5 36t-25.5 21q-5 0 -9 -3.5t-7.5 -9.5t-5.5 -8q-2 -15 -15 -58.5t-13 -68.5q0 -15 2 -23q3 -10 24 -28.5t21 -32.5q0 -27 -43 -27q-7 0 -15 5q-5 2 -24.5 7t-29.5 13q-13 10 -16 24q0 2 -2.5 12.5t-3.5 14t-4 11 t-7.5 12t-10.5 7.5q-6 2 -9 2q-21 0 -21 -38q0 -22 3.5 -66.5t3.5 -66.5q0 -40 -6 -65q-6 -20 -38 -20q-27 0 -27 18q0 22 0.5 64t0.5 63q0 130 -13 229q-1 9 -4.5 14.5t-12.5 14.5l-10 10q-5 5 -12.5 17t-11.5 17q-28 33 -28 47q0 30 29 30q13 0 53 -9.5t60 -6.5 q3 -3 10 -3z" />
<glyph unicode="N" horiz-adv-x="396" d="M351 98q0 -9 2 -27t2 -27q0 -24 -11.5 -34t-36.5 -10q-15 0 -23 24t-8 44q0 6 0.5 17t0.5 16q0 26 -10 44q-17 34 -57 92l-45 63q-3 4 -9.5 14.5t-10.5 14.5q-3 3 -7 3q-6 0 -13.5 -5.5t-7.5 -11.5q0 -160 9 -239v-3q0 -13 -15 -20t-30 -7q-22 0 -25 15q-11 64 -11 157 q0 26 1 78t1 79q0 9 1 28t1 29q0 38 -11 61q-4 7 -14 21.5t-17 27.5t-7 24q0 10 7 21q1 2 11 3.5t12 2.5q6 4 17.5 13.5t12.5 10.5q28 23 46 23q15 0 21.5 -19.5t6.5 -38.5q0 -27 -13 -68q17 -27 65 -113q63 -113 82 -113q5 0 9 5t4 10q0 76 -17 204l-9 68q-4 18 -4 30 q0 9 21 15.5t34 6.5q17 0 19 -12q22 -78 29 -236q8 -211 10 -239q-13 -13 -13 -42z" />
<glyph unicode="O" horiz-adv-x="428" d="M0 228q0 62 15 129t44 112q12 20 44.5 49.5t44.5 47.5q-1 2 -5 8t-4 8q0 3 1.5 11.5t1.5 12.5q0 18 2 21q8 13 27 13q13 0 21 -5q3 -2 8 -6.5t8 -6.5q10 -8 32 -24q41 -30 61.5 -47t48.5 -49.5t41 -65.5q6 -12 6 -19q0 -26 -6 -76q-24 -196 -131 -278q-34 -27 -85 -27 q-56 0 -103.5 26.5t-60.5 76.5q-11 40 -11 89zM181 102q16 0 31 13q46 41 72 106.5t26 131.5q0 30 -8.5 53.5t-16 34t-31.5 34t-34 35.5q-44 -6 -76 -55.5t-44.5 -103t-12.5 -98.5q0 -54 12 -94q6 -19 16 -30t29 -18q25 -9 37 -9z" />
<glyph unicode="P" horiz-adv-x="334" d="M51 271q0 12 -19 22.5t-22 13.5q-10 10 -10 25q0 22 50 22q3 0 6.5 4.5t4.5 7.5q4 15 4 55q0 37 -7 56q-2 6 -16.5 12.5t-19.5 15.5q-6 8 -6 16q0 13 26.5 22.5t30.5 24.5q1 3 2 9.5t2 9.5q10 53 40 53q15 0 28.5 -8.5t13.5 -22.5q0 -6 -3.5 -17.5t-3.5 -18.5q0 -3 1 -5 l11 -12q64 -14 111.5 -53.5t47.5 -98.5q0 -62 -49 -104t-112 -42q-4 0 -11 0.5t-10 0.5q-14 0 -16 -12q-3 -17 -5 -58q-9 -113 -9 -116q-2 -37 -6 -51q-1 -5 -6.5 -12t-9.5 -8q-6 -2 -22 -2q-41 0 -41 30q0 136 24 233q0 1 0.5 4t0.5 4zM134 369q0 -38 36 -38q28 0 47.5 23 t19.5 51q0 29 -22.5 57.5t-49.5 28.5q-10 0 -16.5 -5t-8.5 -15.5t-2.5 -18t0 -21t0.5 -16.5q0 -7 -2 -23t-2 -23z" />
<glyph unicode="Q" horiz-adv-x="472" d="M234 504q7 0 16 -6q5 -4 40 -28.5t50 -35.5t39.5 -31.5t39.5 -36.5q45 -50 45 -149q0 -54 -25 -100q-34 -55 -83 -78q-5 -2 -15 -5t-15 -5q-16 -7 -16 -20q0 -17 8 -48t8 -48q0 -49 -45 -49q-38 0 -43 21q-4 20 -9 57t-7 51q-2 12 -12 20q-56 13 -121 45q-3 2 -11 5.5 t-12 5.5q-13 8 -40 44q-7 11 -20 56q-1 4 -4 48q-2 22 -2 33q0 71 34.5 129t99.5 79q11 4 31.5 5.5t24.5 2.5q9 2 16 20t28 18zM88 262q0 -49 14 -97q14 -47 92 -72q3 10 3 22q0 17 -8 49.5t-8 49.5q0 11 1 15q3 16 17 25.5t30 9.5q21 0 29 -14q16 -24 21.5 -79t18.5 -78 q37 6 59.5 48.5t22.5 84.5q0 41 -26 80q-5 8 -12 15.5t-12 12.5t-15 13t-13.5 10.5t-16.5 12t-15 10.5l-24 18h-1q-1 1 -2 1q-4 0 -11 -3t-10 -3q-4 0 -14 1.5t-15 1.5q-23 0 -43 -10q-62 -31 -62 -124z" />
<glyph unicode="R" horiz-adv-x="505" d="M436 0q-5 2 -11 10q-1 3 -20 46q-8 18 -23 50.5t-20 43.5q-44 100 -85 134q-8 8 -24 8q-18 0 -33 -10.5t-17 -28.5q-2 -34 -2 -51q0 -42 10 -79q7 -18 8 -23q2 -8 2 -12q0 -18 -9 -33q-17 -14 -40 -14q-27 0 -33 19q-13 30 -13 71q0 15 2 45t2 45t-1 22q-2 11 -12 20.5 t-20 9.5q-13 0 -22 9t-9 22q0 15 23 25.5t25 27.5q9 105 9 106q0 64 -29 93q-9 10 -29 10q-7 0 -20 -1t-19 -1q-27 0 -27 25q0 13 24 25q17 7 61.5 16.5t63.5 9.5h49q106 0 163 -15q64 -16 96 -82q15 -29 15 -68q0 -28 -4.5 -47.5t-16 -35t-21 -24t-31.5 -25t-35 -27.5 q3 -6 22 -39.5t37.5 -67.5t38.5 -71.5t32.5 -64.5t12.5 -34q0 -20 -23.5 -29.5t-46.5 -9.5zM225 573q-32 0 -32 -19q0 -2 0.5 -6.5t0.5 -7.5q0 -10 -2 -29.5t-2 -29.5q0 -37 31 -74q23 32 56 32q24 0 45 -18.5t27 -18.5q14 0 25.5 16t15.5 32q2 7 2 22q0 23 -11.5 44 t-31.5 31q-50 26 -124 26z" />
<glyph unicode="S" horiz-adv-x="361" d="M136 -3q-25 0 -51 8q-92 31 -127 78q-10 13 -10 26q0 14 9.5 23.5t22.5 9.5q14 0 66 -39t86 -39q65 0 104 74q9 14 13 27q5 22 5 43q0 40 -22 61t-51 25t-66.5 14t-58.5 27q-38 31 -38 72q0 13 8 29q31 56 80 92t108 36q35 0 75 -17.5t40 -47.5q0 -15 -9 -24.5t-24 -9.5 q-13 0 -29 14.5t-24 17.5q-8 2 -20 2q-30 0 -51 -17q-62 -47 -62 -77q0 -19 23 -31q20 -10 66.5 -22t80 -29t48.5 -48q13 -26 13 -59q0 -40 -27 -108q-18 -49 -70.5 -80t-107.5 -31z" />
<glyph unicode="T" horiz-adv-x="292" d="M75 442q0 14 -7 15q-3 1 -19 2.5t-24 3.5t-16.5 9t-8.5 19q0 24 20 32q4 2 17.5 4t23 5.5t11.5 11.5q7 36 10 82q11 18 17 20q10 4 33 4q33 0 33 -41q0 -15 -6 -19t-6 -19q0 -14 2 -20q1 -2 3.5 -4.5l3 -3l2 -2t2 -1.5t3 -0.5t4.5 -0.5h6q11 0 33 3.5t34 3.5 q16 0 30 -8.5t14 -23.5q0 -12 -12.5 -20.5t-25.5 -8.5q-15 0 -45 -3.5t-45 -3.5q-3 0 -6.5 -3.5t-4.5 -6.5q-1 -9 -1.5 -30t-0.5 -27q-4 -168 -5 -177q-1 -12 -1 -35q0 -15 1 -45t1 -45q0 -59 -11 -90q-7 -19 -31 -19q-13 0 -24.5 6t-13.5 17q-7 37 -7 99q0 48 8 166t9 148 v6z" />
<glyph unicode="U" horiz-adv-x="455" d="M326 41q-22 -41 -129 -41q-109 0 -143 59q-54 90 -54 230q0 20 2 56q0 1 1 27t1.5 31.5t2.5 29.5t3.5 33.5t4 30.5t6 32.5t8 28t11 29t13.5 23.5q10 14 32 14q26 0 47 -16q-3 -18 -10.5 -60.5t-11 -65.5t-8.5 -58.5t-7 -67t-2 -61.5q0 -27 4.5 -62.5t15 -77.5t32 -70.5 t50.5 -28.5q19 0 39.5 14.5t28.5 30.5q11 22 22 57q48 140 48 395v82q0 7 13 7q10 0 32.5 -5.5t30.5 -10.5q10 -8 12 -34q0 -12 1 -17q0 -11 0.5 -32t0.5 -32q0 -290 -97 -470z" />
<glyph unicode="V" horiz-adv-x="299" d="M230 382q-60 -129 -81 -235q0 -2 -0.5 -6.5t-0.5 -7.5q0 -16 8 -46q8 -28 8 -42q0 -29 -26 -29q-4 0 -13 0.5t-13 0.5q-16 0 -39 -9q-20 -8 -32 -8q-9 0 -25 9.5t-16 14.5q0 17 9 40l6.5 13t8 15.5t6.5 13.5q33 58 33 93q0 25 -2.5 52t-7 64t-6.5 51q-4 38 -20 114 q-14 72 -14 111q0 25 3 36q2 13 30 13q19 0 26 -13q16 -31 21 -83q2 -15 4.5 -46t4.5 -45q5 -32 28 -93q48 62 76 139q1 4 8.5 24t12.5 31q14 32 27 51q12 16 35 16q29 0 42 -18q-18 -42 -53.5 -118.5t-47.5 -102.5z" />
<glyph unicode="W" horiz-adv-x="501" d="M419 159q0 -14 22 -34t22 -30q0 -22 -30 -22q-5 0 -15.5 0.5t-16.5 0.5q-10 0 -14 -1q-9 -2 -13 -14t-5.5 -25t-12 -23.5t-31.5 -10.5q-16 0 -27 7.5t-11 22.5q0 14 13 40.5t13 41.5q0 8 -5 20q-1 1 -11.5 18.5t-12.5 28.5q0 6 -1 9q0 3 -1.5 9l-2.5 10q-9 51 -13 59 q-4 9 -6 18q-1 4 -2.5 13t-2.5 12.5l-3 10.5t-4 10.5t-5.5 8.5t-8.5 9.5t-11 8.5q-19 -22 -29 -48q-1 -3 -6.5 -15.5t-10 -23.5t-4.5 -13q0 -3 1 -7.5t1 -6.5v-2q-1 -2 -4.5 -7.5t-4.5 -8.5q-1 -2 -16 -35l-18 -51q-1 -4 -1 -38q0 -21 -6.5 -32t-26.5 -11q-16 0 -25 11 t-11 21t-4 29q-3 34 -17 55q-9 16 -13 46q0 6 -0.5 25.5t-1.5 30.5q-2 19 -8.5 74t-9 82.5t-5.5 71.5t-3 80q0 3 -0.5 13t0 13.5t2 11t4.5 10.5t9 5.5t15 2.5q22 0 26 -15q14 -51 20 -146q1 -11 1.5 -32t1.5 -38.5t3 -32.5t8 -43q3 -34 15 -34q3 0 7 4q19 19 35.5 52.5 t23.5 55.5t19 62q3 11 3 21q0 16 -10.5 46.5t-10.5 47.5q0 35 33 35q8 0 12.5 -3t6.5 -6t6 -11q9 -18 18 -18q6 0 17.5 1t16.5 1q20 0 20 -19q0 -11 -13.5 -38t-13.5 -42q0 -96 77 -222q34 70 49 150q3 16 8.5 48.5t8.5 48.5q2 6 4.5 20t3.5 20q4 14 18.5 22.5t29.5 8.5 q27 0 27 -13l-2 -4q-7 -53 -43.5 -191t-36.5 -217z" />
<glyph unicode="X" horiz-adv-x="496" d="M365 602q-3 0 -4 -3.5t-1 -9v-6.5q-3 -10 -8 -22l-18 -51q-29 -89 -46 -158q25 -37 137 -177q53 -67 66 -87q3 -4 3 -12q0 -16 -16.5 -32t-32.5 -16q-5 0 -7 1q-40 17 -84 77q0 1 -21.5 32t-38.5 52.5t-24 21.5q-4 0 -7 -2.5t-6.5 -6.5t-5.5 -6q-20 -80 -48 -164 q-5 -12 -19 -19q-28 -14 -39 -14q-12 0 -21 11t-9 24q0 6 3 12q61 141 77 249q0 2 0.5 5t0.5 4q0 9 -2 17.5t-8.5 18.5t-9 14t-13 16t-11.5 13q-8 8 -20 26q-11 17 -70 88q-62 72 -62 101q0 17 13.5 29.5t30.5 12.5q11 0 21.5 -4.5t20.5 -16.5l15 -18t15 -22.5t11 -18.5 q10 -16 20 -28q12 -12 34 -40q19 -28 47 -41q14 25 27 65q0 1 3.5 11.5t5 14t5 14t6 16t7 14t9 13t9.5 10t11 7.5t12 2q19 0 42 -17z" />
<glyph unicode="Y" horiz-adv-x="383" d="M314 301q-8 0 -33 17q-10 9 -28 14q-14 -34 -23 -72.5t-17 -89t-13 -75.5q0 -1 -0.5 -4t-0.5 -5q0 -6 3 -17t3 -17q0 -3 -1 -6t-2.5 -6.5t-2.5 -5.5l-6 -12q-8 -11 -18 -13q-45 -9 -47 -9q-13 0 -15 11q-2 12 -2 36q0 46 20 129t23 114q2 16 16 47t14 50q0 27 -29 56.5 t-63 51.5t-63 47t-29 44q0 18 14 29.5t32 11.5q11 0 24 -6t27 -18t24.5 -21.5t24.5 -24t18 -18.5q20 -20 41 -34q23 22 33 64q6 24 9.5 35t16.5 23.5t33 12.5q30 0 33 -11q2 -12 2 -20q0 -34 -25 -96t-27 -69q10 -18 51 -46.5t40 -49.5l-1 -4q0 -9 -12 -19q-32 -24 -44 -24z " />
<glyph unicode="Z" horiz-adv-x="639" d="M522 478q-55 -50 -112 -141q-10 -17 -30 -51.5t-30 -51.5q-6 -10 -17 -27.5t-14 -21.5q-2 -6 -2 -8q0 -6 3 -10t9.5 -8.5t8.5 -6.5q19 -1 67.5 -2t79 -2.5t71 -6.5t67.5 -14q6 -2 6 -9t-2 -9q-17 -37 -81 -37q-33 0 -96.5 9.5t-95.5 9.5q-48 0 -86 -14 q-17 -6 -53.5 -41.5t-61.5 -35.5q-13 0 -21 9t-8 22q0 18 17 32q-16 21 -36 21q-13 0 -36.5 -11.5t-35.5 -11.5q-13 0 -23 13t-10 27q0 32 31 41q24 8 75 16q32 5 56 5q18 0 26 -1q55 55 111 138q8 12 64 100q5 8 15.5 24.5t15.5 24.5q2 3 2 8t-2.5 9.5t-4.5 6.5l-7 7l-6 6 q-21 4 -61.5 4.5t-46.5 0.5q-31 1 -65 11.5t-34 32.5q0 11 9 21.5t20 15.5q9 4 24 4q20 0 56 -14q54 -21 160 -21q25 0 51 45q2 3 6 10.5t5 9.5q20 34 65 34q35 0 50 -12q7 -5 7 -13q0 -16 -21 -37v-22q11 -12 31 -19q1 -1 3 -2q7 -2 7 -6q0 -28 -25 -43t-55 -15 q-23 0 -40 7z" />
<glyph unicode="[" horiz-adv-x="325" d="M158 640q34 0 149 -27q20 -4 20 -30q0 -23 -14.5 -35.5t-37.5 -12.5q-14 0 -41 8t-41 8q-15 0 -27 -6v-440q12 -2 18 -2q12 0 33.5 4t32.5 4q20 0 40.5 -12.5t20.5 -31.5q0 -11 -11 -19.5t-22 -10.5q-22 -3 -70.5 -20t-76.5 -17q-14 0 -35.5 8t-31.5 8q-4 0 -11.5 -1.5 t-11.5 -1.5q-41 0 -41 35q0 20 11 29q4 3 30 10t28 18q16 90 16 245q0 42 -2.5 128t-2.5 128q0 7 7 14.5t14 10.5q23 9 57 9z" />
<glyph unicode="\" horiz-adv-x="359" d="M0 600q0 18 12.5 29t30.5 11t33 -17q16 -17 19.5 -49t12.5 -43q2 -3 17.5 -25t26.5 -32q1 0 1 -2q0 -1 -9 -10q22 -18 35 -39.5t26 -56t19 -48.5q16 -33 47 -84t53 -95.5t33 -90.5q2 -8 2 -11q0 -37 -48 -37q-24 0 -30 12q-11 19 -51 101q-40 85 -98 217q-12 26 -40 77.5 t-40 78.5q-5 12 -24.5 40.5t-24.5 48.5q-3 12 -3 25z" />
<glyph unicode="]" horiz-adv-x="416" d="M235 640q18 0 28.5 -1.5t21.5 -9.5t13 -24q3 1 8 1q2 0 7 -0.5t7 -0.5q4 0 10 2.5t9 2.5q11 0 33 -13q21 -11 21 -29q0 -1 -0.5 -3t-0.5 -3q-3 -12 -9.5 -20.5t-18 -14t-18 -7.5t-23 -5t-21.5 -4q0 -40 -3 -119.5t-3 -119.5q0 -150 22 -202q3 -9 19 -9q5 0 15 0.5t14 0.5 q25 0 34 -8q14 -12 14 -30q0 -15 -13 -23t-29.5 -10.5t-34 -9t-23.5 -17.5q-5 -8 -5 -36q0 -26 -10.5 -37t-36.5 -11q-20 0 -42 10q-14 7 -14 21q0 5 2 16t2 16q0 11 -19 11q-17 0 -49 -10t-48 -10q-17 0 -27 12.5t-10 30.5q0 22 26.5 36t69 23.5t51.5 13.5q2 32 2 97 q0 36 -1 109.5t-1 109.5q0 14 3 40t3 39q0 56 -47 56q-20 0 -58 -11.5t-58 -11.5q-47 0 -47 36q0 12 9 20q14 14 31.5 21t44.5 11.5t37 7.5q5 1 24 1.5t31.5 5t14.5 16.5q9 43 43 43z" />
<glyph unicode="^" horiz-adv-x="242" d="M11 694q0 12 9 20q1 1 13.5 12t18.5 17q8 8 51 48q38 -4 50 -10.5t31 -36.5q4 -5 10.5 -15t9.5 -15q2 -2 8.5 -7.5t10.5 -10.5t4 -11q0 -12 -13.5 -23.5t-25.5 -11.5q-22 0 -31 22q-2 5 -4 9.5t-3.5 7t-2 4.5t-1.5 3.5t-1.5 2.5t-2.5 3l-3.5 3.5l-5.5 5.5l-7 7 q-14 -6 -39 -25.5t-46 -19.5q-30 0 -30 21z" />
<glyph unicode="`" horiz-adv-x="182" d="M31 788q2 0 3.5 -2t2.5 -2q12 -6 59 -38q18 -11 38.5 -30.5t20.5 -33.5t-11.5 -23.5t-25.5 -9.5q-13 0 -21 7q-19 17 -36.5 28.5t-29.5 22t-31 33.5q3 2 3 6q0 2 -1 6t-1 7q0 7 11.5 18t18.5 11z" />
<glyph unicode="a" horiz-adv-x="365" d="M101 280q12 0 34 -2t33 -2q66 0 66 57q0 21 -11 69l-2 8t-2 6.5t-3.5 5.5t-3.5 4.5t-4.5 5l-4.5 4.5t-6 5t-6 5q-7 5 -12 5t-12 -5q-20 -14 -25.5 -21.5t-7.5 -25.5t-6 -32q-3 -10 -16.5 -17t-25.5 -7q-11 0 -20.5 7.5t-9.5 18.5q0 3 1 4q5 33 7.5 44.5t9.5 28.5t21 40 q14 21 42 30q42 13 52 13q6 0 20 -4q1 -1 19 -8.5t28.5 -14t14.5 -13.5q14 -23 25 -56t11 -57q0 -23 -9 -86q-4 -37 -13.5 -80t-13.5 -68q-3 -22 12 -41q2 -2 8.5 -6t10.5 -9t4 -14q0 -7 -1.5 -12t-2 -8t-5 -7t-6 -5t-8.5 -5t-9 -5q-50 -30 -114 -30q-49 0 -91 15 q-34 12 -51.5 45t-17.5 71q0 51 21 84q2 3 6.5 10t7.5 11t8 10.5t9 10t9 8t11 6.5q20 9 29 9zM77 137l3 -24q6 -26 16.5 -37t36.5 -11q51 0 64 28q0 3 -3.5 10.5t-3.5 12.5q0 12 6.5 35.5t6.5 36.5q0 18 -6.5 24t-23.5 6h-24q-32 0 -52 -24t-20 -57z" />
<glyph unicode="b" horiz-adv-x="359" d="M326 162q-29 -60 -81.5 -100.5t-119.5 -54.5q-28 -7 -51 -7q-22 0 -22 40q0 8 1 12q5 39 8 112t7 106q4 36 4 54q0 34 -5 44q-5 13 -25 13q-4 0 -11.5 -0.5t-10.5 -0.5q-10 0 -13 4q-7 12 -7 37q0 22 25 30q16 4 23 6q14 4 19 14q8 17 8 39q0 9 -1 27t-1 27q0 76 53 76 q20 0 38 -9q-18 -68 -18 -104q0 -27 9 -53q6 -18 40 -27q4 -1 11.5 -3t11.5 -3q12 -3 18 -7q35 -26 50 -45q56 -77 56 -151q0 -43 -16 -76zM239 301q-13 39 -31 59t-56 24q-6 -32 -6 -67q0 -9 0.5 -28t0.5 -29q0 -17 -4 -51t-4 -51q0 -31 11 -60q39 7 67.5 34.5t31.5 61.5 q0 1 1.5 12.5t1.5 16.5t-2 13q-2 4 -2 7q0 1 2 7q3 9 3 15q-2 6 -7 18t-7 18z" />
<glyph unicode="c" horiz-adv-x="318" d="M120 474q40 0 132 -52q21 -12 21 -34q0 -16 -12.5 -25t-28.5 -9q-13 0 -44.5 18t-55.5 18q-8 0 -12 -1q-5 -1 -9.5 -3t-7.5 -5.5t-4.5 -6t-3 -8.5l-2 -8t-1.5 -9.5t-1 -8.5q-8 -48 -8 -70q0 -84 57 -121q13 -8 27 -8q18 0 95 28l15 3q12 0 23 -10t11 -23q0 -31 -30 -46 q-58 -29 -108 -29q-61 0 -100.5 38.5t-54 89.5t-14.5 111q0 51 11.5 86t45.5 62q29 23 59 23z" />
<glyph unicode="d" horiz-adv-x="310" d="M290 410q0 -5 -2 -14.5t-2 -14.5q-1 -8 -1 -24q0 -53 8.5 -160t8.5 -161q0 -62 -5 -91q-3 -19 -29 -19q-15 0 -30 7t-15 20q0 5 2 14t2 13q0 21 -31 21q-6 0 -18.5 -1.5t-18.5 -1.5q-12 0 -38.5 10t-39.5 18q-43 25 -62 77t-19 110q0 97 53.5 162.5t147.5 98.5q4 1 5 2.5 t0.5 4t1.5 5.5q4 13 4 33q0 10 -1.5 30t-1.5 30q0 61 47 61q25 0 30 -19q8 -32 8 -72q0 -19 -2.5 -58t-2.5 -59q0 -4 0.5 -11t0.5 -11zM208 343q0 5 1 16t1 17q0 13 -3.5 17.5t-15.5 4.5q-5 0 -10.5 -2t-9 -3.5t-9 -6.5t-7.5 -7t-8 -8.5t-7 -7.5l-13 -13q-20 -20 -31 -50 q-4 -11 -11.5 -44t-7.5 -41q0 -39 15 -77q12 -27 42.5 -49.5t58.5 -22.5q15 0 27 6q0 5 0.5 15t0.5 15q0 40 -6.5 120t-6.5 121z" />
<glyph unicode="e" horiz-adv-x="396" d="M43 216q0 15 10 90q5 34 15 67.5t28 67t46.5 54t63.5 20.5q25 0 45 -7l12 -4t15.5 -5.5t9.5 -6.5q22 -23 32.5 -40.5t20.5 -49.5q1 -4 1 -26.5t3 -24.5q2 -3 17.5 -9t18.5 -13q1 -3 1 -10q0 -31 -24 -39q-13 -5 -70 -5q-22 0 -67 5.5t-67 5.5q-14 0 -21 -1 q-12 -15 -12 -40q0 -12 3.5 -34.5t4.5 -29.5q6 -49 32 -66q2 -1 15.5 -10.5t19.5 -13t17.5 -8t20.5 -4.5q20 0 36.5 12t18.5 31q2 10 2 14t-1 13.5t-1 14.5q0 6 10 13.5t18 10.5q4 2 14 2q25 0 32.5 -14t7.5 -42q0 -66 -44 -95q-60 -40 -94 -37t-95 33q-48 24 -71.5 74.5 t-23.5 106.5zM159 372q0 -3 3.5 -7t6.5 -4q14 0 41.5 -5t41.5 -5q3 0 10.5 4.5t7.5 6.5q-5 28 -9.5 42t-6 17.5t-9 8.5t-10.5 8q-3 4 -30 4q-14 0 -30 -27.5t-16 -42.5z" />
<glyph unicode="f" horiz-adv-x="425" d="M173 328q35 0 102 18.5t103 18.5q14 0 21.5 -1t16 -7.5t8.5 -19.5q0 -9 -5 -16q-1 -2 -6 -6l-5 -4q-9 -7 -19.5 -12t-18.5 -8t-22 -6.5t-19.5 -4.5t-23 -3.5t-20.5 -3.5q-15 -3 -45 -10t-43 -9q-4 0 -12.5 -2l-17 -4t-9.5 -2q-7 -2 -7 -10l1 -2q3 -16 3 -83 q0 -10 -0.5 -30t-0.5 -30q0 -11 1 -32t1 -31q0 -14 -16 -21t-32 -7q-24 0 -31 21q-9 26 -9 65q0 14 1.5 42t1.5 42q0 37 -7 59q-8 -2 -14 -2q-19 0 -34.5 10t-15.5 28q0 15 3 22q5 4 29.5 11.5t25.5 19.5q1 6 1 18q0 21 -6 62.5t-6 62.5q0 78 66 144q35 35 72 35q21 0 47 -8 t37 -21q55 -63 55 -124q0 -48 -30 -48q-16 0 -28 10q-9 8 -14 21t-8.5 33t-5.5 26q-1 5 -8 13t-9 11q-4 10 -18 10q-8 0 -25 -10q-53 -31 -53 -114q0 -28 10 -54q3 -9 3 -29q0 -24 9 -26q8 -2 26 -2z" />
<glyph unicode="g" horiz-adv-x="316" d="M0 400q0 15 13 30.5t36.5 33.5t27.5 22q0 2 1.5 6.5t1.5 6.5q9 11 31.5 13t28.5 6q18 11 29 48.5t19 47.5q12 16 51 16q9 0 14.5 -6.5t5.5 -15.5q0 -7 -20 -43t-20 -59q0 -20 18.5 -41.5t21.5 -29.5q1 -3 3 -10.5t3 -11.5v-7q0 -11 -16 -48t-80 -60q-15 -6 -15 -18 q0 -17 23 -17q4 0 12 1.5t13 1.5h5q9 -4 24 -17q63 -51 63 -129q0 -55 -35 -86.5t-93 -42.5q-12 -2 -18 -2q-26 0 -53 15t-41 38q-9 14 -19 38q-4 9 -4 27q0 7 -2.5 18t-2.5 17q0 16 12 47q12 28 54 57q-19 49 -43 71q-3 3 -9 6.5t-8 5.5q-5 4 -13 23q-19 38 -19 48z M141 343q21 0 34.5 21.5t13.5 43.5q0 5 -1 8q-1 5 -9 14t-13 9q-3 0 -8 -3.5t-8 -3.5q-68 0 -68 -39q0 -19 20 -34.5t39 -15.5zM110 130q0 -64 40 -78q3 -2 9 -2q10 0 23 7.5t19 16.5q16 20 16 47q0 25 -12 48.5t-33 32.5q-6 2 -12 2q-17 0 -31.5 -16t-16.5 -34 q-2 -16 -2 -24z" />
<glyph unicode="h" horiz-adv-x="324" d="M30 610q1 15 16.5 23t34.5 8q11 0 19 -3.5t13 -11.5t7.5 -15.5t3.5 -19.5t1.5 -19.5t0 -20t-0.5 -16.5q0 -40 8 -51q11 -16 54 -18t55 -7q29 -14 37 -34q3 -7 10 -30q22 -69 28 -113q2 -15 2 -90q0 -11 1.5 -32t1.5 -32q0 -20 -4 -62v-11t-1 -12q-2 -14 -15.5 -26 t-26.5 -12q-43 0 -50 17q-3 6 -3 19t5 36.5t6 32.5q2 26 2 39q0 44 -19 150q-9 62 -25 84q-12 16 -33 16q-30 0 -34 -20q-6 -32 -6 -104q0 -37 4 -110.5t4 -111.5q0 -18 -2 -56q-23 -20 -57 -20q-26 0 -31 15q-5 16 -5 47q0 16 3 48.5t3 49.5q0 13 -1 19q-8 116 -8 173 q-3 200 2 281z" />
<glyph unicode="i" horiz-adv-x="234" d="M138 384q15 0 25.5 -8t10.5 -21q0 -9 -9 -29q-3 -24 -3 -49q0 -37 6.5 -109t6.5 -109q0 -18 -1 -27q-4 -32 -35 -32q-20 0 -33 9q-14 9 -14 32q-1 19 -6 88t-5 107q0 7 0.5 21.5t0.5 22.5q0 5 0.5 22t1.5 25t4 20.5t11 19.5t21 11q4 1 6 2t2.5 2t3 1.5t6.5 0.5zM2 578 q0 40 17 51t59 11q40 0 71.5 -29t31.5 -68q0 -5 -3 -13.5t-3 -12.5q0 -2 1 -4q2 -10 2 -16q0 -25 -21.5 -44t-46.5 -19q-27 0 -46 19q-62 60 -62 125z" />
<glyph unicode="j" horiz-adv-x="320" d="M220 339q0 11 -8 31t-8 31q0 20 18 31t38 11q29 0 33 -24q2 -10 4.5 -28t3.5 -24q17 -102 17 -147q0 -64 -21 -114q-18 -45 -61.5 -75.5t-90.5 -30.5q-39 0 -71 24q-33 25 -50.5 68.5t-20.5 78t-3 87.5q0 10 7 20.5t16 14.5q14 7 30 7q4 0 6.5 -0.5t4 -3.5t2 -4.5t1.5 -7 t2 -8.5q3 -11 6.5 -32.5t4.5 -28.5q1 -4 6.5 -31t9 -39t10.5 -30.5t16 -26.5t21 -7q28 2 46 12t26 27.5t11 35.5t3 44q0 18 -5.5 55.5t-5.5 54.5q0 5 1 14.5t1 14.5zM191 558q0 82 61 82q47 0 47 -55q0 -34 -14.5 -61t-45.5 -27q-48 0 -48 61z" />
<glyph unicode="k" horiz-adv-x="380" d="M379 108q0 -4 -2 -11t-2 -10q-3 -8 -17 -9t-18 -7q-4 4 -10.5 4.5t-8.5 2.5q-3 2 -19 24q-15 21 -46.5 84t-57.5 91q-3 -3 -12.5 -10.5t-15.5 -14t-10 -13.5q-16 -32 -16 -121q0 -85 -32 -116q-1 -2 -5 -2q-9 0 -22 6.5t-17 14.5q-10 20 -10 50q0 18 5 54t5 54l-30 -5 q-15 -3 -26.5 5.5t-11.5 27.5q0 15 30 32t35 25q9 17 9 42q0 18 -6 54t-6 55q0 163 9 197q4 13 17.5 20.5t27.5 7.5q8 0 14 -2t9.5 -6.5t5.5 -8t3 -12t1 -11.5v-13.5v-11.5q0 -30 -4 -88t-4 -87q0 -28 3 -57q5 -10 7 -10q1 0 29 23.5t61 47t48 23.5t28.5 -8.5t13.5 -22.5 t-10.5 -24.5t-23 -16t-23 -14t-10.5 -18.5q0 -8 5 -21t11 -23t14.5 -24.5t10.5 -18.5q21 -37 47 -80q4 -7 13 -22t13 -22q1 -1 1 -4z" />
<glyph unicode="l" horiz-adv-x="173" d="M43 421q0 13 -0.5 39t-0.5 39q0 80 13 117q10 24 44 24q27 0 30 -21q1 -11 1.5 -23t1 -27t0.5 -23q3 -78 3 -155q0 -124 -11 -261q-7 -78 -13 -108q-1 -3 -15 -12.5t-17 -9.5t-9 4t-8 4q-5 0 -7 -7q-26 26 -27 32q-2 13 -2 64q0 42 2.5 89t6.5 104t6 88q2 30 2 43z" />
<glyph unicode="m" horiz-adv-x="515" d="M89 581q4 -8 4 -19q0 -8 -2.5 -22.5t-2.5 -21.5q0 -9 6 -9q11 0 46.5 14.5t54.5 14.5q24 0 53.5 -27.5t40.5 -27.5q2 0 2 1q10 1 50 11t63 10q90 0 90 -124v-31q0 -146 -18 -242q-9 -50 -14 -64q-4 -13 -29 -13q-13 0 -26 9q-22 15 -22 54q0 42 15.5 120.5t15.5 118.5 q0 52 -16 96q-5 16 -19 16q-12 0 -29.5 -13t-23.5 -24q-4 -7 -4 -15q0 -13 10 -37.5t10 -37.5q0 -19 -16 -31t-36 -12q-9 0 -15 6q-18 16 -28.5 65t-14.5 58q-9 20 -14 29t-18 21t-29 12q-22 0 -41 -21.5t-25 -44.5q-9 -34 -9 -71q0 -21 4.5 -63t4.5 -64q0 -12 -0.5 -37 t-0.5 -37q0 -7 0.5 -20.5t0.5 -20.5q0 -5 -0.5 -14t-0.5 -13q0 -13 4 -24q-42 -25 -55 -25q-11 0 -21 7q-1 0 -6 9t-12 9q10 69 10 145q0 63 -11.5 183t-12.5 174v4q-1 23 11.5 33.5t36.5 10.5q29 0 39 -5z" />
<glyph unicode="n" horiz-adv-x="334" d="M70 535q38 0 38 -28q0 -6 -2.5 -18t-2.5 -18q12 1 41 5.5t44 4.5q36 0 55 -24q65 -82 65 -183q0 -22 -2.5 -65.5t-2.5 -65.5q0 -33 1 -50q1 -6 4.5 -24.5t3.5 -28.5q0 -19 -12.5 -29.5t-31.5 -10.5q-11 0 -18.5 3t-12 10t-7.5 13t-3.5 17t-1 17.5t0 18.5t0.5 16 q0 23 2.5 69.5t2.5 69.5q0 72 -32 148q-12 29 -23 33q-4 1 -8 1q-18 0 -40.5 -8t-24.5 -22q-6 -38 -6 -98q0 -28 3.5 -84t3.5 -84q0 -59 -4 -81q-2 -10 -13.5 -15.5t-22.5 -5.5q-15 0 -25 9.5t-11 24.5v153q0 36 -4 78q-9 108 -4 142q3 36 3 41t-1 15t-1 15q0 39 49 39z" />
<glyph unicode="o" horiz-adv-x="372" d="M194 495q88 0 110 -41q38 -76 38 -144q0 -78 -55 -123q-36 -29 -100 -29q-78 0 -143 60q-41 37 -41 102q0 34 10 76q14 54 58 75q52 24 123 24zM147 432q-31 0 -42 -19q-19 -36 -19 -78q0 -47 33 -80t79 -33q32 0 46.5 21.5t14.5 53.5t-13 78q-17 55 -58 55q-7 0 -21 1 t-20 1z" />
<glyph unicode="p" horiz-adv-x="291" d="M11 77q0 5 1.5 13t1.5 13q1 7 1 21q0 48 -7.5 144t-7.5 144q0 56 4 82q3 17 27 17q13 0 26 -6.5t13 -18.5q0 -4 -1.5 -11.5t-1.5 -12.5q0 -18 28 -18q5 0 16 1t17 1q11 0 35 -9t35 -16q38 -22 55 -69t17 -99q0 -86 -47.5 -145t-131.5 -88q-4 -1 -4.5 -2.5t-0.5 -4 t-2 -4.5q-4 -13 -4 -29q0 -10 1.5 -28t1.5 -27q0 -54 -42 -54q-22 0 -27 17q-8 34 -8 64q0 17 2.5 52.5t2.5 52.5v20zM84 137q0 -5 -1 -14.5t-1 -14.5q0 -20 17 -20q4 0 8 1t8 3t6.5 3.5t6.5 5.5l5.5 5.5t6 6.5t5.5 6q1 2 5.5 5.5t5.5 5.5q21 23 28 45q17 51 17 77 q0 35 -13 69q-10 24 -37.5 44t-53.5 20q-14 0 -24 -5v-27q0 -36 5.5 -108t5.5 -108z" />
<glyph unicode="q" horiz-adv-x="333" d="M242 508q13 0 23.5 -5.5t10.5 -16.5q0 -7 -3.5 -20t-3.5 -19q0 -13 15.5 -25t15.5 -19q0 -8 -7 -15q-2 -3 -11.5 -5.5t-11.5 -6.5q-21 -38 -21 -113q0 -53 9 -102q1 -5 17 -15.5t16 -20.5q0 -11 -18.5 -23.5t-20.5 -21.5q-3 -18 -3 -38q0 -16 3 -47t3 -46q0 -81 -45 -81 q-18 0 -27.5 11.5t-11 23t-1.5 31.5q0 11 1 33.5t1 33.5q0 31 -7 49q-15 -5 -28 -5q-23 0 -59 17q-6 3 -16.5 11t-12.5 9q-25 18 -37 60.5t-12 81.5q0 64 32.5 130t86.5 89q7 3 35.5 4t36.5 16q3 4 7.5 13.5t7 13t7.5 9t12 7.5t17 2zM71 235q0 -71 42 -112q12 -11 32 -11 q17 0 20 5q5 5 5 18q17 65 17 154q0 34 -4 104q-44 0 -61 -20q-51 -57 -51 -138z" />
<glyph unicode="r" horiz-adv-x="258" d="M25 432q0 17 1 24q5 16 12 26q3 6 20 10.5t21 7.5q3 -4 15 -7.5t12 -10.5q0 -11 -2.5 -32.5t-2.5 -32.5q0 -27 11 -43q8 7 29 28t34.5 33.5t34 26t37.5 17.5q4 1 15 1q24 0 24 -20q0 -16 -16 -28q-40 -29 -63 -48.5t-49 -52.5t-38 -69q-10 -31 -10 -79q0 -19 2 -55t2 -54 q0 -19 -1 -28.5t-5 -22t-15 -18t-29 -5.5q-6 0 -9 1t-4.5 2t-4 5t-5.5 7q-6 17 -6 42q0 13 2.5 39t2.5 39q0 40 -10 40q-3 0 -12 -4.5t-14 -4.5q-9 0 -17 12t-8 21q0 14 29.5 48.5t29.5 62.5q0 20 -6.5 61t-6.5 61z" />
<glyph unicode="s" horiz-adv-x="346" d="M70 370q0 60 33 98q15 17 69 33q7 3 21 3q35 0 75 -29q3 -2 15 -9.5t18.5 -12.5t13 -13.5t6.5 -16.5q0 -15 -13.5 -27t-28.5 -12q-11 0 -37.5 20t-41.5 20q-18 0 -30 -16.5t-12 -35.5q0 -12 5 -19q11 -21 51 -46t54 -47q46 -70 46 -136q0 -56 -40 -89.5t-98 -33.5 q-45 0 -99 21q-57 23 -63 86q-1 7 -7.5 21t-6.5 23t11 24t18 15h5.5h6.5h7t7.5 -0.5t7 -1.5t7 -2.5t6 -3.5t5.5 -4.5t3.5 -6.5t2.5 -8q4 -41 29 -71q6 -8 10 -12q46 -27 76.5 -6t30.5 61q0 32 -22.5 66.5t-51.5 47.5q-48 22 -68.5 47t-20.5 73z" />
<glyph unicode="t" horiz-adv-x="453" d="M167 448q0 11 2 31t2 26q1 0 1 9l-1 9q0 18 8 26q17 17 39 17q38 0 38 -45q0 -10 -0.5 -28.5t-0.5 -27.5q0 -48 5 -105q0 -12 12 -16q8 -3 43 -6q9 -1 29 -2.5t32 -2.5t28 -4.5t29 -8.5q17 -8 17 -26q0 -5 -1 -7q-14 -34 -62 -34q-19 0 -54.5 7.5t-53.5 7.5q-7 0 -11 -1 q-10 -22 -10 -68q0 -21 3 -64t3 -65q0 -19 -1 -28.5t-5.5 -21t-15 -16t-28.5 -4.5q-23 0 -33 8t-10 30v225q0 4 -4 7.5t-8 4.5q-3 1 -12 1q-17 0 -49.5 -9t-49.5 -9t-32.5 10.5t-15.5 25.5q0 24 22 38q22 13 75.5 14t77.5 18q6 0 6 17q0 7 -7 30t-7 37z" />
<glyph unicode="u" horiz-adv-x="369" d="M29 327q0 13 -1 41t-1 42v7q0 18 0.5 29t4.5 27t13.5 24t25.5 8q15 0 24.5 -9.5t9.5 -23.5q0 -8 -2 -23.5t-2 -22.5q0 -22 -2 -67t-2 -67q0 -93 22 -150q7 -17 25 -27t37 -10q9 0 17 3q34 10 48 72.5t14 117.5q0 85 -34 172q-2 8 -2 13q0 15 14 24t29 9t26 -8t17.5 -25 t9.5 -29t6 -34t4 -26q5 -24 5 -59q0 -14 -1 -42t-1 -41q0 -4 0.5 -11t0.5 -10q0 -2 -5 -5.5t-5 -4.5q0 -3 0.5 -7.5t0.5 -6.5q0 -26 -13 -61q-30 -78 -117 -98q-12 -3 -25 -3q-30 0 -101 31q-2 1 -5.5 2.5t-5 2.5t-4.5 2.5t-4.5 2.5t-3.5 3t-3.5 4.5t-2.5 5.5l-2 6 q-12 46 -12 122q0 16 1.5 49.5t1.5 50.5z" />
<glyph unicode="v" horiz-adv-x="345" d="M115 1q-19 0 -30 8q-3 2 -7 13t-4 15q0 3 1 8t1 7q2 20 2 29q0 39 -14 92q-38 126 -63 251v3q0 5 5 9.5t13 9t10 6.5q11 11 27 11q15 0 22 -11q17 -34 33 -116t33 -118q0 -2 2 -2q1 0 12 16q2 25 28 108q6 1 14 7q2 6 9 26.5t12.5 31t14.5 25.5t21.5 22t28.5 7 q14 0 25 -7.5t11 -20.5q0 -22 -20.5 -53t-20.5 -36q0 -4 1.5 -11t1.5 -10q0 -5 -6 -19.5t-13.5 -30.5t-9.5 -21q-12 -36 -40.5 -104.5t-39.5 -101.5q-7 -19 -23.5 -31t-36.5 -12z" />
<glyph unicode="w" horiz-adv-x="519" d="M0 343q0 18 14 33.5t32 15.5q10 0 20 -10q20 -25 47.5 -104t44.5 -106q21 50 38 94q4 9 10 26.5t9 25.5q10 23 38 23q25 0 36 -20q8 -16 22.5 -62t31.5 -68q11 25 19 53.5t16.5 68t12.5 55.5q14 63 31 93q9 16 36 16q12 0 22 -4.5t9 -15.5v-2q-9 -121 -66 -315 q-24 -81 -42 -124q-7 -16 -36 -16q-38 0 -38 25q0 6 2 17.5t2 17.5v7q-12 59 -57 117l-2 2q-3 0 -5.5 -5.5t-2.5 -8.5q-4 -10 -12 -34.5t-14 -40t-17 -34t-24 -28.5q-8 -7 -25 -7t-22 7q-4 4 -9 13.5t-6 11.5q-36 68 -68 175q-4 14 -25.5 51t-21.5 57z" />
<glyph unicode="x" horiz-adv-x="341" d="M322 112q0 -16 -12.5 -25t-29.5 -9q-15 0 -27.5 10t-18.5 20.5t-14.5 29.5t-12.5 25q-2 4 -9.5 16.5t-11 18t-10.5 15t-14 16.5t-15 12q-13 -25 -44 -125q-13 -40 -15 -44q-11 -22 -63 -22q0 8 -8 18t-8 20q0 42 88 237q-15 13 -38 47t-43 50q-15 12 -15 30q0 30 41 30 q22 0 36.5 -11t20 -24t15 -24t21.5 -11q10 0 14.5 12t7 28.5t6.5 22.5q14 23 41 23q13 0 26.5 -7t13.5 -19q0 -41 -44 -109q-10 -17 -10 -31q0 -25 34 -63t39 -50q4 -9 31.5 -46.5t27.5 -60.5z" />
<glyph unicode="y" horiz-adv-x="302" d="M13 520q0 30 36 30q23 0 42 -11q0 -18 -1 -52.5t-1 -51.5q0 -164 56 -245q4 -5 34 -13q3 39 5 109t6.5 127.5t17.5 106.5q6 24 39 24q16 0 33 -5q-19 -171 -19 -244v-25q0 -10 -4 -29.5t-4 -29.5q0 -33 27 -33q4 0 12.5 0.5t12.5 0.5q15 0 20 -7t5 -22q0 -22 -15.5 -32 t-32 -15.5t-18.5 -16.5q-1 -5 -3 -26.5t-3 -27.5l-4 -24t-5 -24.5t-6.5 -21.5t-9 -22t-12 -19t-16 -19.5t-20 -16.5t-24.5 -17q-25 -14 -60 -14q-39 0 -71.5 23.5t-32.5 60.5q0 28 22 34q2 1 7 3t8.5 3t5.5 1q7 0 14 -10t13.5 -23t11.5 -18q16 -16 31 -16h3q71 33 71 121 q0 43 -5 56q-1 4 -8.5 6t-16.5 3.5t-12 3.5q-2 1 -5 3t-5.5 3t-5.5 2q-29 11 -35 17q-60 73 -72 242q-6 100 -6 151z" />
<glyph unicode="z" horiz-adv-x="441" d="M258 401q0 7 -22 7q-14 0 -62 -12q-26 -5 -61 -27q-30 -19 -41 -19q-3 0 -9.5 0.5t-9.5 0.5q-9 0 -13 6q-10 15 -10 20q0 3 1 4q7 14 23 24t39.5 18.5t31.5 12.5q15 7 55 18l33 9q6 1 28 4.5t36.5 7.5t27.5 10q6 3 25 27t44 24q22 0 38 -8q7 -4 7 -16q0 -4 -1 -6 q-10 -14 -50 -64q-60 -78 -87 -119q-14 -20 -50 -64t-57.5 -80t-29.5 -75q29 -12 68 -12q29 0 85.5 10.5t84.5 10.5q14 0 28.5 -8t14.5 -21q0 -7 -6 -16.5t-13 -12.5q-23 -11 -73 -13.5t-61 -4.5q-23 -5 -43 -5q-21 0 -62.5 5.5t-62.5 5.5q-29 -43 -63 -43q-16 0 -23.5 5 t-14.5 19q0 1 -0.5 2.5t-0.5 2.5q0 2 2.5 6.5t2.5 6.5q0 5 -7 7q35 33 82 109.5t74 106.5q22 25 60 77q26 39 31 45l4 4t5 5.5t2 4.5z" />
<glyph unicode="{" horiz-adv-x="326" d="M246 640q23 0 46.5 -11.5t23.5 -31.5q0 -11 -5.5 -18.5t-18 -12t-19.5 -6.5t-25 -4l-18 -2q-16 -2 -16 -40q0 -13 8 -37.5t8 -37.5q0 -20 -23.5 -48.5t-23.5 -52.5t18 -68.5t18 -67.5q0 -15 -10 -42t-10 -41q0 -16 13 -29q9 -9 31 -13.5t38.5 -11.5t16.5 -24 q0 -13 -9 -17q-41 -24 -76 -24q-38 0 -68 24q-27 21 -37 81v9q0 16 9.5 46t9.5 45q0 7 -4 21q-1 4 -4 19.5t-5.5 27t-9 22.5t-14.5 12q-2 1 -7 1q-9 0 -26.5 -3t-26.5 -3q-30 0 -30 34q0 23 21 38.5t46.5 22t46.5 18t21 27.5q0 8 -10 31t-10 40q0 46 42 86.5t89 40.5z" />
<glyph unicode="|" horiz-adv-x="168" d="M43 441q0 52 9 128q2 33 5 45q3 11 13.5 18.5t22.5 7.5q21 0 31.5 -28t9.5 -53v-5q-2 -88 -19 -253t-19 -187q-8 -83 -26 -105q-8 -9 -22 -9q-16 0 -29 6q-4 0 -8.5 2.5t-10.5 3.5q5 40 19 125t19 130q8 66 8 99q0 12 -1.5 37.5t-1.5 37.5z" />
<glyph unicode="}" horiz-adv-x="368" d="M265 495q0 -27 -12 -61q0 -1 -1 -5t-1 -6q0 -10 22 -20l49.5 -22.5t37.5 -27.5q8 -20 8 -22v-1l-1 -2q-5 -3 -10.5 -10t-13 -11.5t-21.5 -4.5t-37.5 10t-31.5 12q-10 -22 -10 -58q0 -14 2 -40.5t2 -39.5q0 -31 -8 -54q-6 -15 -19 -29t-24.5 -22t-32 -20t-28.5 -18 q-2 -1 -20 -15.5t-30.5 -21t-23.5 -6.5q-8 0 -15 4q-5 2 -16.5 3t-19 5t-10.5 13q1 -1 4 -1t7.5 5.5t6.5 6.5q-1 1 -5 2.5t-6.5 3t-2.5 4.5q0 14 24 29q9 5 43.5 20t53.5 30t25 39q7 27 9 89.5t16 102.5v4q0 5 -5 13t-6 12l-3 18q0 13 7.5 39.5t7.5 39.5q0 2 -0.5 6.5 t-0.5 6.5q-3 10 -11 14q-11 11 -48 26t-64.5 31.5t-27.5 37.5q0 16 12 23q22 13 34 13q10 0 19 -6q24 -15 72.5 -36.5t69.5 -34.5q34 -20 34 -68z" />
<glyph unicode="~" horiz-adv-x="273" d="M216 681l3 -2q-33 -10 -43 -10q-37 0 -56 33q-9 16 -17 21q-2 1 -5 3q-1 0 -2 1l-2 1q-4 0 -8 -2q-8 -2 -10 -11.5t-7 -19.5t-19 -14l-4 -1q-4 -1 -5 -1q-10 0 -19.5 8t-9.5 17q0 23 6 34.5t23 29.5q18 20 38 20h4q3 0 8.5 1.5t9.5 1.5q10 0 28 -10t25 -19q1 -2 10 -14 t10 -12q1 -1 8 -1q10 0 10 12t6 23q7 9 31.5 4.5t21.5 -22.5q0 -2 -2 -12.5t-3 -14.5t-4 -12.5t-6 -13t-8 -10t-12 -8.5z" />
<glyph unicode="&#xa3;" horiz-adv-x="567" d="M134 582q9 5 23.5 15t23.5 16.5t23.5 13.5t26 10t26 2.5t29.5 -6.5q9 -3 14 -16.5t-3 -19.5q-78 -42 -111 -83q-8 -10 -9.5 -22.5t5.5 -29.5t10.5 -23.5t13.5 -24.5q7 -11 17 -8t29 8t30 0q21 -9 22.5 -28t-18.5 -28q-12 -8 -38 -13t-30 -11q-26 -37 -41.5 -113 t-30.5 -106q0 -8 8 -16q63 -12 191 -20q30 -2 57 17.5t54.5 46.5t48.5 36q2 1 9 3.5t11.5 4t11 2.5t12 -1.5t8.5 -8.5q0 -1 2.5 -13.5t9.5 -14.5q2 -2 -1 -10.5t-3 -9.5q-3 -3 -20.5 -21t-22 -22t-21 -19t-24 -20.5t-23 -16t-26.5 -14.5t-25.5 -9t-29.5 -6q-65 -7 -186 6 t-149 14q-13 7 -20 20q-4 28 6.5 56.5t27 60t22.5 50.5q29 67 12 88q-2 10 -31.5 3t-40.5 -3q-19 10 -12 48q4 18 16.5 27.5t36 17t31.5 11.5q3 0 3 10t-3 10q-63 49 -36 96q6 10 17 19.5t18 14.5t26 16.5t23 13.5z" />
<glyph unicode="&#xa8;" horiz-adv-x="303" d="M214 757q18 0 27 -11q18 -20 18 -46q0 -22 -13 -36.5t-34 -14.5q-14 0 -25 10q-1 1 -4 3l-4.5 3t-4 2.5t-3.5 3t-3 3.5t-2.5 3.5t-1.5 4t-1.5 5t-0.5 5.5q0 37 8 50q9 15 31 15h13zM110 705q0 -12 -13 -25.5t-26 -16.5q-5 -1 -15 -1q-22 0 -37 16t-15 39q0 16 10.5 33.5 t25.5 17.5q22 0 45 -28l15 -15q10 -8 10 -20z" />
<glyph unicode="&#xb4;" horiz-adv-x="182" d="M123 788q-2 0 -3 -2l-3 -2q-12 -6 -59 -38q-58 -39 -58 -64q0 -14 11 -23.5t25 -9.5q13 0 21 7q19 17 37 28.5t30 22t31 33.5q-4 2 -4 6q0 2 1.5 6t1.5 7q0 7 -12 18t-19 11z" />
<glyph unicode="&#xc0;" horiz-adv-x="340" d="M266 0q-19 0 -25 8t-6 27q0 6 1 28.5t0 33.5l-3 63q-2 32 -15 120q-3 25 -27 25q-5 0 -14.5 -1t-14.5 -1t-13.5 3t-12.5 3q-7 0 -15 -5.5t-11 -12.5q-4 -9 -11 -39q-14 -57 -35 -113q-8 -19 -28 -19q-33 0 -36 20v12q0 30 9.5 61t26.5 71.5t23 58.5q7 21 27 86.5 t36.5 109t37.5 82.5q11 19 40 19q31 0 63 -17q39 -468 47 -542q0 -3 0.5 -9.5t0.5 -9.5q0 -62 -45 -62zM209 460q-2 2 -3.5 5t-3 5.5t-4.5 4.5t-7 2q-10 0 -16.5 -8.5t-11 -23.5t-6.5 -19q-11 -24 -11 -37q0 -23 32 -23t32 36q0 9 -0.5 28.5t-0.5 29.5zM91 788q2 0 3.5 -2 t2.5 -2q12 -6 59 -38q18 -11 38.5 -30.5t20.5 -33.5t-11.5 -23.5t-25.5 -9.5q-13 0 -21 7q-19 17 -36.5 28.5t-29.5 22t-31 33.5q3 2 3 6q0 2 -1 6t-1 7q0 7 11.5 18t18.5 11z" />
<glyph unicode="&#xc1;" horiz-adv-x="340" d="M266 0q-19 0 -25 8t-6 27q0 6 1 28.5t0 33.5l-3 63q-2 32 -15 120q-3 25 -27 25q-5 0 -14.5 -1t-14.5 -1t-13.5 3t-12.5 3q-7 0 -15 -5.5t-11 -12.5q-4 -9 -11 -39q-14 -57 -35 -113q-8 -19 -28 -19q-33 0 -36 20v12q0 30 9.5 61t26.5 71.5t23 58.5q7 21 27 86.5 t36.5 109t37.5 82.5q11 19 40 19q31 0 63 -17q39 -468 47 -542q0 -3 0.5 -9.5t0.5 -9.5q0 -62 -45 -62zM209 460q-2 2 -3.5 5t-3 5.5t-4.5 4.5t-7 2q-10 0 -16.5 -8.5t-11 -23.5t-6.5 -19q-11 -24 -11 -37q0 -23 32 -23t32 36q0 9 -0.5 28.5t-0.5 29.5zM250 788q-2 0 -3 -2 l-3 -2q-12 -6 -59 -38q-58 -39 -58 -64q0 -14 11 -23.5t25 -9.5q13 0 21 7q19 17 37 28.5t30 22t31 33.5q-4 2 -4 6q0 2 1.5 6t1.5 7q0 7 -12 18t-19 11z" />
<glyph unicode="&#xc2;" horiz-adv-x="340" d="M266 0q-19 0 -25 8t-6 27q0 6 1 28.5t0 33.5l-3 63q-2 32 -15 120q-3 25 -27 25q-5 0 -14.5 -1t-14.5 -1t-13.5 3t-12.5 3q-7 0 -15 -5.5t-11 -12.5q-4 -9 -11 -39q-14 -57 -35 -113q-8 -19 -28 -19q-33 0 -36 20v12q0 30 9.5 61t26.5 71.5t23 58.5q7 21 27 86.5 t36.5 109t37.5 82.5q11 19 40 19q31 0 63 -17q39 -468 47 -542q0 -3 0.5 -9.5t0.5 -9.5q0 -62 -45 -62zM209 460q-2 2 -3.5 5t-3 5.5t-4.5 4.5t-7 2q-10 0 -16.5 -8.5t-11 -23.5t-6.5 -19q-11 -24 -11 -37q0 -23 32 -23t32 36q0 9 -0.5 28.5t-0.5 29.5zM114 691q0 13 9 20 q1 1 13.5 12t18.5 17q8 8 51 48q38 -4 50 -10.5t31 -36.5q4 -4 10 -15t10 -15q2 -2 8.5 -7.5t10.5 -10.5t4 -11q0 -12 -13.5 -23.5t-25.5 -11.5q-22 0 -31 22q-2 5 -4 9.5t-3.5 7t-2 4.5t-1.5 3.5t-1.5 2.5t-2.5 3l-3.5 3.5l-5.5 5.5l-7 7q-14 -6 -39 -25.5t-46 -19.5 q-30 0 -30 21z" />
<glyph unicode="&#xc3;" horiz-adv-x="340" d="M266 0q-19 0 -25 8t-6 27q0 6 1 28.5t0 33.5l-3 63q-2 32 -15 120q-3 25 -27 25q-5 0 -14.5 -1t-14.5 -1t-13.5 3t-12.5 3q-7 0 -15 -5.5t-11 -12.5q-4 -9 -11 -39q-14 -57 -35 -113q-8 -19 -28 -19q-33 0 -36 20v12q0 30 9.5 61t26.5 71.5t23 58.5q7 21 27 86.5 t36.5 109t37.5 82.5q11 19 40 19q31 0 63 -17q39 -468 47 -542q0 -3 0.5 -9.5t0.5 -9.5q0 -62 -45 -62zM209 460q-2 2 -3.5 5t-3 5.5t-4.5 4.5t-7 2q-10 0 -16.5 -8.5t-11 -23.5t-6.5 -19q-11 -24 -11 -37q0 -23 32 -23t32 36q0 9 -0.5 28.5t-0.5 29.5zM273 678l3 -2 q-33 -10 -43 -10q-37 0 -56 33q-9 16 -17 21q-2 1 -5 3q-1 0 -3 1l-1 1q-4 0 -8 -2q-8 -2 -10 -11.5t-7 -19.5t-19 -14q-1 0 -5 -1l-4 -1q-10 0 -19.5 8t-9.5 17q0 23 6 34.5t23 29.5q18 20 38 20h4q3 0 8.5 1.5t9.5 1.5q10 0 28 -10t25 -19q1 -2 10 -14t10 -12q1 -1 8 -1 q10 0 10 12t6 23q7 9 31.5 4.5t21.5 -22.5q0 -2 -2 -12.5t-3 -14.5t-4 -12.5t-6 -13t-8 -10t-12 -8.5z" />
<glyph unicode="&#xc4;" horiz-adv-x="340" d="M266 0q-19 0 -25 8t-6 27q0 6 1 28.5t0 33.5l-3 63q-2 32 -15 120q-3 25 -27 25q-5 0 -14.5 -1t-14.5 -1t-13.5 3t-12.5 3q-7 0 -15 -5.5t-11 -12.5q-4 -9 -11 -39q-14 -57 -35 -113q-8 -19 -28 -19q-33 0 -36 20v12q0 30 9.5 61t26.5 71.5t23 58.5q7 21 27 86.5 t36.5 109t37.5 82.5q11 19 40 19q31 0 63 -17q39 -468 47 -542q0 -3 0.5 -9.5t0.5 -9.5q0 -62 -45 -62zM209 460q-2 2 -3.5 5t-3 5.5t-4.5 4.5t-7 2q-10 0 -16.5 -8.5t-11 -23.5t-6.5 -19q-11 -24 -11 -37q0 -23 32 -23t32 36q0 9 -0.5 28.5t-0.5 29.5zM277 772q18 0 27 -11 q18 -20 18 -46q0 -22 -13 -36.5t-34 -14.5q-14 0 -25 10q-1 1 -4 3l-4.5 3t-4 2.5t-3.5 3t-3 3.5t-2.5 3.5t-1.5 4t-1.5 5t-0.5 5.5q0 37 8 50q9 15 31 15h13zM173 720q0 -12 -13 -25.5t-26 -16.5q-5 -1 -15 -1q-22 0 -37 16t-15 39q0 16 10.5 33.5t25.5 17.5q22 0 45 -28 l15 -15q10 -8 10 -20z" />
<glyph unicode="&#xc5;" horiz-adv-x="340" d="M266 0q45 0 45 62q0 3 -0.5 9.5t-0.5 9.5q-8 74 -47 542q-32 17 -63 17q-29 0 -40 -19q-21 -39 -37.5 -82.5t-36.5 -109t-27 -86.5q-6 -18 -23 -58.5t-26.5 -71.5t-9.5 -61v-12q3 -20 36 -20q20 0 28 19q21 56 35 113q7 30 11 39q3 7 11 12.5t15 5.5q4 0 12.5 -3t13.5 -3 t14.5 1t14.5 1q24 0 27 -25q13 -88 15 -120l3 -63q1 -11 0 -33.5t-1 -28.5q0 -19 6 -27t25 -8zM209 460q0 -10 0.5 -29.5t0.5 -28.5q0 -36 -32 -36t-32 23q0 13 11 37q2 4 6.5 19t11 23.5t16.5 8.5q5 0 8 -2.5t5.5 -7.5t4.5 -7z" />
<glyph unicode="&#xc7;" horiz-adv-x="364" d="M240 5q-9 -45 -36 -75.5t-67 -30.5q-65 0 -86 10q-20 13 -21 32.5t16.5 32.5t38.5 3q37 -20 52 -20q27 0 31 43q-38 3 -64 19q-104 61 -104 213q0 28 3 55q24 183 163 304q56 49 111 49q17 0 38 -6.5t26 -17.5q1 -2 1 -13q0 -23 -20 -37q-16 -11 -45 -24t-50 -27.5 t-35 -38.5q-9 -15 -24.5 -44t-19.5 -37q-39 -70 -39 -145q0 -65 28 -117q19 -37 69 -37q43 0 80 17q18 6 26 6q19 0 36 -11.5t17 -28.5q0 -12 -7 -26q-21 -40 -82 -44q-24 -2 -36 -4z" />
<glyph unicode="&#xc8;" horiz-adv-x="387" d="M59 6q-13 0 -16 25t5 36q5 8 12 10.5t12 2.5t9 3t6 15t1 36q-3 107 -16 132q-4 9 -11.5 11.5t-13 1t-10 1.5t-4.5 12q0 48 2 51q6 3 18 7q22 10 22 79q0 12 -3.5 34.5t-3.5 26.5q-2 42 -2 48t3 26.5t5 44.5q1 12 20.5 21.5t33.5 9.5q8 0 13.5 -1t9.5 -1.5t6.5 -3l4 -4 t2 -7t0.5 -7v-10v-11.5q0 -21 43 -21q16 0 48 1.5t47 1.5q21 0 53.5 -4.5t32.5 -13.5q0 -3 0.5 -9.5t0.5 -9.5t-0.5 -8.5t-2 -8t-4.5 -7t-7.5 -6t-11 -4.5t-16 -3t-21.5 -1.5t-28 0.5q-10 0 -35.5 1.5t-41.5 1.5q-8 0 -24.5 -4t-19.5 -4q-8 -8 -15 -9t-8 -4t-1 -21 q0 -12 2.5 -34t2.5 -33q0 -4 -1.5 -12.5t-1.5 -12.5q0 -7 5.5 -12.5t12.5 -5.5q18 0 53 7.5t53 7.5q48 0 51 -23q4 -29 -26 -43t-77 -21t-58 -12q-12 -12 -12 -25q0 -22 5.5 -69t11.5 -63q13 -16 20 -16q25 0 71 18t70 18q12 0 25 -12.5t13 -26.5q0 -12 -12.5 -22t-34 -17 t-41 -12t-42 -9t-28.5 -6q-78 -21 -156 -21zM146 788q2 0 3.5 -2t2.5 -2q12 -6 59 -38q18 -11 38.5 -30.5t20.5 -33.5t-11.5 -23.5t-25.5 -9.5q-13 0 -21 7q-19 17 -36.5 28.5t-29.5 22t-31 33.5q3 2 3 6q0 2 -1 6t-1 7q0 7 11.5 18t18.5 11z" />
<glyph unicode="&#xc9;" horiz-adv-x="387" d="M59 6q-13 0 -16 25t5 36q5 8 12 10.5t12 2.5t9 3t6 15t1 36q-3 107 -16 132q-4 9 -11.5 11.5t-13 1t-10 1.5t-4.5 12q0 48 2 51q6 3 18 7q22 10 22 79q0 12 -3.5 34.5t-3.5 26.5q-2 42 -2 48t3 26.5t5 44.5q1 12 20.5 21.5t33.5 9.5q8 0 13.5 -1t9.5 -1.5t6.5 -3l4 -4 t2 -7t0.5 -7v-10v-11.5q0 -21 43 -21q16 0 48 1.5t47 1.5q21 0 53.5 -4.5t32.5 -13.5q0 -3 0.5 -9.5t0.5 -9.5t-0.5 -8.5t-2 -8t-4.5 -7t-7.5 -6t-11 -4.5t-16 -3t-21.5 -1.5t-28 0.5q-10 0 -35.5 1.5t-41.5 1.5q-8 0 -24.5 -4t-19.5 -4q-8 -8 -15 -9t-8 -4t-1 -21 q0 -12 2.5 -34t2.5 -33q0 -4 -1.5 -12.5t-1.5 -12.5q0 -7 5.5 -12.5t12.5 -5.5q18 0 53 7.5t53 7.5q48 0 51 -23q4 -29 -26 -43t-77 -21t-58 -12q-12 -12 -12 -25q0 -22 5.5 -69t11.5 -63q13 -16 20 -16q25 0 71 18t70 18q12 0 25 -12.5t13 -26.5q0 -12 -12.5 -22t-34 -17 t-41 -12t-42 -9t-28.5 -6q-78 -21 -156 -21zM319 788q-2 0 -3 -2l-3 -2q-12 -6 -59 -38q-58 -39 -58 -64q0 -14 11 -23.5t25 -9.5q13 0 21 7q19 17 37 28.5t30 22t31 33.5q-4 2 -4 6q0 2 1.5 6t1.5 7q0 7 -12 18t-19 11z" />
<glyph unicode="&#xca;" horiz-adv-x="387" d="M59 6q-13 0 -16 25t5 36q5 8 12 10.5t12 2.5t9 3t6 15t1 36q-3 107 -16 132q-4 9 -11.5 11.5t-13 1t-10 1.5t-4.5 12q0 48 2 51q6 3 18 7q22 10 22 79q0 12 -3.5 34.5t-3.5 26.5q-2 42 -2 48t3 26.5t5 44.5q1 12 20.5 21.5t33.5 9.5q8 0 13.5 -1t9.5 -1.5t6.5 -3l4 -4 t2 -7t0.5 -7v-10v-11.5q0 -21 43 -21q16 0 48 1.5t47 1.5q21 0 53.5 -4.5t32.5 -13.5q0 -3 0.5 -9.5t0.5 -9.5t-0.5 -8.5t-2 -8t-4.5 -7t-7.5 -6t-11 -4.5t-16 -3t-21.5 -1.5t-28 0.5q-10 0 -35.5 1.5t-41.5 1.5q-8 0 -24.5 -4t-19.5 -4q-8 -8 -15 -9t-8 -4t-1 -21 q0 -12 2.5 -34t2.5 -33q0 -4 -1.5 -12.5t-1.5 -12.5q0 -7 5.5 -12.5t12.5 -5.5q18 0 53 7.5t53 7.5q48 0 51 -23q4 -29 -26 -43t-77 -21t-58 -12q-12 -12 -12 -25q0 -22 5.5 -69t11.5 -63q13 -16 20 -16q25 0 71 18t70 18q12 0 25 -12.5t13 -26.5q0 -12 -12.5 -22t-34 -17 t-41 -12t-42 -9t-28.5 -6q-78 -21 -156 -21zM149 683q0 13 9 20q1 1 13.5 12t18.5 17q8 8 51 48q38 -4 50 -10.5t31 -36.5q3 -5 9.5 -15t10.5 -15q2 -2 8.5 -7.5t10.5 -10.5t4 -11q0 -12 -13.5 -23.5t-25.5 -11.5q-22 0 -31 22q-2 5 -4 9.5t-3.5 7t-2 4.5t-1.5 3.5t-1.5 2.5 t-2.5 3l-3.5 3.5l-5.5 5.5l-7 7q-15 -6 -39.5 -25.5t-45.5 -19.5q-30 0 -30 21z" />
<glyph unicode="&#xcb;" horiz-adv-x="387" d="M59 6q-13 0 -16 25t5 36q5 8 12 10.5t12 2.5t9 3t6 15t1 36q-3 107 -16 132q-4 9 -11.5 11.5t-13 1t-10 1.5t-4.5 12q0 48 2 51q6 3 18 7q22 10 22 79q0 12 -3.5 34.5t-3.5 26.5q-2 42 -2 48t3 26.5t5 44.5q1 12 20.5 21.5t33.5 9.5q8 0 13.5 -1t9.5 -1.5t6.5 -3l4 -4 t2 -7t0.5 -7v-10v-11.5q0 -21 43 -21q16 0 48 1.5t47 1.5q21 0 53.5 -4.5t32.5 -13.5q0 -3 0.5 -9.5t0.5 -9.5t-0.5 -8.5t-2 -8t-4.5 -7t-7.5 -6t-11 -4.5t-16 -3t-21.5 -1.5t-28 0.5q-10 0 -35.5 1.5t-41.5 1.5q-8 0 -24.5 -4t-19.5 -4q-8 -8 -15 -9t-8 -4t-1 -21 q0 -12 2.5 -34t2.5 -33q0 -4 -1.5 -12.5t-1.5 -12.5q0 -7 5.5 -12.5t12.5 -5.5q18 0 53 7.5t53 7.5q48 0 51 -23q4 -29 -26 -43t-77 -21t-58 -12q-12 -12 -12 -25q0 -22 5.5 -69t11.5 -63q13 -16 20 -16q25 0 71 18t70 18q12 0 25 -12.5t13 -26.5q0 -12 -12.5 -22t-34 -17 t-41 -12t-42 -9t-28.5 -6q-78 -21 -156 -21zM305 766q18 0 27 -11q18 -20 18 -46q0 -22 -13 -36.5t-34 -14.5q-14 0 -25 10q-1 1 -4 3l-4.5 3t-4 2.5t-3.5 3t-3 3.5t-2.5 3.5t-1.5 4t-1.5 5t-0.5 5.5q0 37 8 50q9 15 31 15h13zM201 714q0 -12 -13 -25.5t-26 -16.5 q-5 -1 -15 -1q-22 0 -37 16t-15 39q0 16 10.5 33.5t25.5 17.5q22 0 45 -28l15 -15q10 -8 10 -20z" />
<glyph unicode="&#xcc;" horiz-adv-x="405" d="M204 20q-13 0 -18 0.5t-13.5 2.5t-11.5 7.5t-3 14.5q0 4 -1 6t-4 2.5t-5.5 0.5t-6.5 -0.5t-7 -0.5q-35 0 -56 -3q-20 -2 -31 -2q-13 0 -18.5 0.5t-13.5 3.5t-11.5 11t-3.5 21q0 16 9 26.5t25 14t29.5 5t31.5 1t22 -0.5q23 3 45 13q5 42 5 73q0 32 -3.5 111t-3.5 110 q0 5 0.5 13.5t0.5 12.5q0 19 -19 19q-14 0 -54 -6.5t-55 -6.5q-12 0 -18.5 9.5t-7.5 20t-1 28.5q0 1 0.5 3t0.5 3q7 9 20.5 14t33.5 9t25 6q12 2 17 3q3 0 10 0.5t11 0.5q24 4 29 22q5 19 47 24q17 2 25.5 -2.5t25.5 -26.5q8 -10 23 -10.5t35 3.5t29 4q42 -2 55 -20 q1 -2 1 -33q0 -14 -22.5 -21t-41.5 -7q-13 0 -37 2.5t-36 2.5q-7 0 -14 -7.5t-8 -14.5q-1 -8 -1 -25q0 -38 7.5 -136.5t7.5 -135.5v-23q0 -20 24 -32q9 -1 49.5 3t62 -3t18.5 -33q1 -13 -8 -21.5t-23 -11.5t-31 -4t-33 -0.5t-28 -0.5q-13 -1 -18 -2.5t-10.5 -6t-7.5 -13.5 q-3 -17 -40 -17zM91 788q2 0 3.5 -2t2.5 -2q12 -6 59 -38q18 -11 38.5 -30.5t20.5 -33.5t-11.5 -23.5t-25.5 -9.5q-13 0 -21 7q-19 17 -36.5 28.5t-29.5 22t-31 33.5q3 2 3 6q0 2 -1 6t-1 7q0 7 11.5 18t18.5 11z" />
<glyph unicode="&#xcd;" horiz-adv-x="405" d="M204 20q-13 0 -18 0.5t-13.5 2.5t-11.5 7.5t-3 14.5q0 4 -1 6t-4 2.5t-5.5 0.5t-6.5 -0.5t-7 -0.5q-35 0 -56 -3q-20 -2 -31 -2q-13 0 -18.5 0.5t-13.5 3.5t-11.5 11t-3.5 21q0 16 9 26.5t25 14t29.5 5t31.5 1t22 -0.5q23 3 45 13q5 42 5 73q0 32 -3.5 111t-3.5 110 q0 5 0.5 13.5t0.5 12.5q0 19 -19 19q-14 0 -54 -6.5t-55 -6.5q-12 0 -18.5 9.5t-7.5 20t-1 28.5q0 1 0.5 3t0.5 3q7 9 20.5 14t33.5 9t25 6q12 2 17 3q3 0 10 0.5t11 0.5q24 4 29 22q5 19 47 24q17 2 25.5 -2.5t25.5 -26.5q8 -10 23 -10.5t35 3.5t29 4q42 -2 55 -20 q1 -2 1 -33q0 -14 -22.5 -21t-41.5 -7q-13 0 -37 2.5t-36 2.5q-7 0 -14 -7.5t-8 -14.5q-1 -8 -1 -25q0 -38 7.5 -136.5t7.5 -135.5v-23q0 -20 24 -32q9 -1 49.5 3t62 -3t18.5 -33q1 -13 -8 -21.5t-23 -11.5t-31 -4t-33 -0.5t-28 -0.5q-13 -1 -18 -2.5t-10.5 -6t-7.5 -13.5 q-3 -17 -40 -17zM281 788q-2 0 -3 -2l-3 -2q-12 -6 -59 -38q-58 -39 -58 -64q0 -14 11 -23.5t25 -9.5q13 0 21 7q19 17 37 28.5t30 22t31 33.5q-4 2 -4 6q0 2 1.5 6t1.5 7q0 7 -12 18t-19 11z" />
<glyph unicode="&#xce;" horiz-adv-x="405" d="M204 20q-13 0 -18 0.5t-13.5 2.5t-11.5 7.5t-3 14.5q0 4 -1 6t-4 2.5t-5.5 0.5t-6.5 -0.5t-7 -0.5q-35 0 -56 -3q-20 -2 -31 -2q-13 0 -18.5 0.5t-13.5 3.5t-11.5 11t-3.5 21q0 16 9 26.5t25 14t29.5 5t31.5 1t22 -0.5q23 3 45 13q5 42 5 73q0 32 -3.5 111t-3.5 110 q0 5 0.5 13.5t0.5 12.5q0 19 -19 19q-14 0 -54 -6.5t-55 -6.5q-12 0 -18.5 9.5t-7.5 20t-1 28.5q0 1 0.5 3t0.5 3q7 9 20.5 14t33.5 9t25 6q12 2 17 3q3 0 10 0.5t11 0.5q24 4 29 22q5 19 47 24q17 2 25.5 -2.5t25.5 -26.5q8 -10 23 -10.5t35 3.5t29 4q42 -2 55 -20 q1 -2 1 -33q0 -14 -22.5 -21t-41.5 -7q-13 0 -37 2.5t-36 2.5q-7 0 -14 -7.5t-8 -14.5q-1 -8 -1 -25q0 -38 7.5 -136.5t7.5 -135.5v-23q0 -20 24 -32q9 -1 49.5 3t62 -3t18.5 -33q1 -13 -8 -21.5t-23 -11.5t-31 -4t-33 -0.5t-28 -0.5q-13 -1 -18 -2.5t-10.5 -6t-7.5 -13.5 q-3 -17 -40 -17zM97 679q0 13 9 20q1 1 13.5 12t18.5 17q8 8 51 48q38 -4 50 -10.5t31 -36.5q4 -5 10 -15.5t10 -14.5q2 -2 8.5 -7.5t10.5 -10.5t4 -11q0 -12 -13.5 -23.5t-25.5 -11.5q-22 0 -31 22q-2 5 -4 9.5t-3.5 7t-2 4.5t-1.5 3.5t-1.5 2.5t-2.5 3l-3.5 3.5l-5.5 5.5 l-7 7q-15 -6 -39.5 -25.5t-45.5 -19.5q-30 0 -30 21z" />
<glyph unicode="&#xcf;" horiz-adv-x="405" d="M204 20q-13 0 -18 0.5t-13.5 2.5t-11.5 7.5t-3 14.5q0 4 -1 6t-4 2.5t-5.5 0.5t-6.5 -0.5t-7 -0.5q-35 0 -56 -3q-20 -2 -31 -2q-13 0 -18.5 0.5t-13.5 3.5t-11.5 11t-3.5 21q0 16 9 26.5t25 14t29.5 5t31.5 1t22 -0.5q23 3 45 13q5 42 5 73q0 32 -3.5 111t-3.5 110 q0 5 0.5 13.5t0.5 12.5q0 19 -19 19q-14 0 -54 -6.5t-55 -6.5q-12 0 -18.5 9.5t-7.5 20t-1 28.5q0 1 0.5 3t0.5 3q7 9 20.5 14t33.5 9t25 6q12 2 17 3q3 0 10 0.5t11 0.5q24 4 29 22q5 19 47 24q17 2 25.5 -2.5t25.5 -26.5q8 -10 23 -10.5t35 3.5t29 4q42 -2 55 -20 q1 -2 1 -33q0 -14 -22.5 -21t-41.5 -7q-13 0 -37 2.5t-36 2.5q-7 0 -14 -7.5t-8 -14.5q-1 -8 -1 -25q0 -38 7.5 -136.5t7.5 -135.5v-23q0 -20 24 -32q9 -1 49.5 3t62 -3t18.5 -33q1 -13 -8 -21.5t-23 -11.5t-31 -4t-33 -0.5t-28 -0.5q-13 -1 -18 -2.5t-10.5 -6t-7.5 -13.5 q-3 -17 -40 -17zM274 760q18 0 27 -11q18 -20 18 -46q0 -22 -13 -36.5t-34 -14.5q-14 0 -25 10q-1 1 -4 3l-4.5 3t-4 2.5t-3.5 3t-3 3.5t-2.5 3.5t-1.5 4t-1.5 5t-0.5 5.5q0 37 8 50q9 15 31 15h13zM170 708q0 -12 -13 -25.5t-26 -16.5q-5 -1 -15 -1q-22 0 -37 16t-15 39 q0 16 10.5 33.5t25.5 17.5q22 0 45 -28l15 -15q10 -8 10 -20z" />
<glyph unicode="&#xd1;" horiz-adv-x="396" d="M351 98q0 -9 2 -27t2 -27q0 -24 -11.5 -34t-36.5 -10q-15 0 -23 24t-8 44q0 6 0.5 17t0.5 16q0 26 -10 44q-17 34 -57 92l-45 63q-3 4 -9.5 14.5t-10.5 14.5q-3 3 -7 3q-6 0 -13.5 -5.5t-7.5 -11.5q0 -160 9 -239v-3q0 -13 -15 -20t-30 -7q-22 0 -25 15q-11 64 -11 157 q0 26 1 78t1 79q0 9 1 28t1 29q0 38 -11 61q-4 7 -14 21.5t-17 27.5t-7 24q0 10 7 21q1 2 11 3.5t12 2.5q6 4 17.5 13.5t12.5 10.5q28 23 46 23q15 0 21.5 -19.5t6.5 -38.5q0 -27 -13 -68q17 -27 65 -113q63 -113 82 -113q5 0 9 5t4 10q0 76 -17 204l-9 68q-4 18 -4 30 q0 9 21 15.5t34 6.5q17 0 19 -12q22 -78 29 -236q8 -211 10 -239q-13 -13 -13 -42zM259 681l3 -2q-32 -10 -43 -10q-37 0 -56 33q-9 16 -17 21q-2 1 -5 3q-1 0 -3 1l-1 1q-4 0 -8 -2q-8 -2 -10 -11.5t-7 -19.5t-19 -14q-1 0 -5 -1l-4 -1q-10 0 -19.5 8t-9.5 17q0 23 6 34.5 t23 29.5q18 20 38 20h4q3 0 8.5 1.5t9.5 1.5q10 0 28 -10t25 -19q1 -2 10 -14t10 -12q1 -1 8 -1q10 0 10 12t6 23q7 9 31.5 4.5t21.5 -22.5q0 -2 -2 -12.5t-3 -14.5t-4 -12.5t-6 -13t-8 -10t-12 -8.5z" />
<glyph unicode="&#xd2;" horiz-adv-x="428" d="M0 228q0 62 15 129t44 112q12 20 44.5 49.5t44.5 47.5q-1 2 -5 8t-4 8q0 3 1.5 11.5t1.5 12.5q0 18 2 21q8 13 27 13q13 0 21 -5q3 -2 8 -6.5t8 -6.5q10 -8 32 -24q41 -30 61.5 -47t48.5 -49.5t41 -65.5q6 -12 6 -19q0 -26 -6 -76q-24 -196 -131 -278q-34 -27 -85 -27 q-56 0 -103.5 26.5t-60.5 76.5q-11 40 -11 89zM181 102q16 0 31 13q46 41 72 106.5t26 131.5q0 30 -8.5 53.5t-16 34t-31.5 34t-34 35.5q-44 -6 -76 -55.5t-44.5 -103t-12.5 -98.5q0 -54 12 -94q6 -19 16 -30t29 -18q25 -9 37 -9zM114 788q2 0 3.5 -2t2.5 -2q12 -6 59 -38 q18 -11 38.5 -30.5t20.5 -33.5t-11.5 -23.5t-25.5 -9.5q-13 0 -21 7q-19 17 -36.5 28.5t-29.5 22t-31 33.5q3 2 3 6q0 2 -1 6t-1 7q0 7 11.5 18t18.5 11z" />
<glyph unicode="&#xd3;" horiz-adv-x="428" d="M0 228q0 62 15 129t44 112q12 20 44.5 49.5t44.5 47.5q-1 2 -5 8t-4 8q0 3 1.5 11.5t1.5 12.5q0 18 2 21q8 13 27 13q13 0 21 -5q3 -2 8 -6.5t8 -6.5q10 -8 32 -24q41 -30 61.5 -47t48.5 -49.5t41 -65.5q6 -12 6 -19q0 -26 -6 -76q-24 -196 -131 -278q-34 -27 -85 -27 q-56 0 -103.5 26.5t-60.5 76.5q-11 40 -11 89zM181 102q16 0 31 13q46 41 72 106.5t26 131.5q0 30 -8.5 53.5t-16 34t-31.5 34t-34 35.5q-44 -6 -76 -55.5t-44.5 -103t-12.5 -98.5q0 -54 12 -94q6 -19 16 -30t29 -18q25 -9 37 -9zM284 788q-2 0 -3 -2l-3 -2q-12 -6 -59 -38 q-58 -39 -58 -64q0 -14 11 -23.5t25 -9.5q13 0 21 7q19 17 37 28.5t30 22t31 33.5q-4 2 -4 6q0 2 1.5 6t1.5 7q0 7 -12 18t-19 11z" />
<glyph unicode="&#xd4;" horiz-adv-x="428" d="M0 228q0 62 15 129t44 112q12 20 44.5 49.5t44.5 47.5q-1 2 -5 8t-4 8q0 3 1.5 11.5t1.5 12.5q0 18 2 21q8 13 27 13q13 0 21 -5q3 -2 8 -6.5t8 -6.5q10 -8 32 -24q41 -30 61.5 -47t48.5 -49.5t41 -65.5q6 -12 6 -19q0 -26 -6 -76q-24 -196 -131 -278q-34 -27 -85 -27 q-56 0 -103.5 26.5t-60.5 76.5q-11 40 -11 89zM181 102q16 0 31 13q46 41 72 106.5t26 131.5q0 30 -8.5 53.5t-16 34t-31.5 34t-34 35.5q-44 -6 -76 -55.5t-44.5 -103t-12.5 -98.5q0 -54 12 -94q6 -19 16 -30t29 -18q25 -9 37 -9zM86 688q0 12 9 20q1 1 13.5 12t18.5 17 q8 8 51 48q38 -4 50 -10.5t31 -36.5q4 -5 10 -15.5t10 -14.5q2 -2 8.5 -7.5t10.5 -10.5t4 -11q0 -12 -13.5 -23.5t-25.5 -11.5q-22 0 -31 22q-2 5 -4 9.5t-3.5 7t-2 4.5t-1.5 3.5t-1.5 2.5t-2.5 3l-3.5 3.5l-5.5 5.5l-7 7q-15 -6 -39.5 -25.5t-45.5 -19.5q-30 0 -30 21z" />
<glyph unicode="&#xd5;" horiz-adv-x="428" d="M0 228q0 62 15 129t44 112q12 20 44.5 49.5t44.5 47.5q-1 2 -5 8t-4 8q0 3 1.5 11.5t1.5 12.5q0 18 2 21q8 13 27 13q13 0 21 -5q3 -2 8 -6.5t8 -6.5q10 -8 32 -24q41 -30 61.5 -47t48.5 -49.5t41 -65.5q6 -12 6 -19q0 -26 -6 -76q-24 -196 -131 -278q-34 -27 -85 -27 q-56 0 -103.5 26.5t-60.5 76.5q-11 40 -11 89zM181 102q16 0 31 13q46 41 72 106.5t26 131.5q0 30 -8.5 53.5t-16 34t-31.5 34t-34 35.5q-44 -6 -76 -55.5t-44.5 -103t-12.5 -98.5q0 -54 12 -94q6 -19 16 -30t29 -18q25 -9 37 -9zM287 673l3 -2q-32 -10 -43 -10 q-37 0 -56 33q-9 16 -17 21q-2 1 -5 3q-1 0 -3 1l-1 1q-4 0 -8 -2q-8 -2 -10 -11.5t-7 -19.5t-19 -14q-1 0 -5 -1l-4 -1q-10 0 -19.5 8t-9.5 17q0 23 6 34.5t23 29.5q18 20 38 20h4q3 0 8.5 1.5t9.5 1.5q10 0 28 -10t25 -19q1 -2 10 -14t10 -12q1 -1 8 -1q10 0 10 12t6 23 q7 9 31.5 4.5t21.5 -22.5q0 -2 -2 -12.5t-3 -14.5t-4 -12.5t-6 -13t-8 -10t-12 -8.5z" />
<glyph unicode="&#xd6;" horiz-adv-x="428" d="M0 228q0 62 15 129t44 112q12 20 44.5 49.5t44.5 47.5q-1 2 -5 8t-4 8q0 3 1.5 11.5t1.5 12.5q0 18 2 21q8 13 27 13q13 0 21 -5q3 -2 8 -6.5t8 -6.5q10 -8 32 -24q41 -30 61.5 -47t48.5 -49.5t41 -65.5q6 -12 6 -19q0 -26 -6 -76q-24 -196 -131 -278q-34 -27 -85 -27 q-56 0 -103.5 26.5t-60.5 76.5q-11 40 -11 89zM181 102q16 0 31 13q46 41 72 106.5t26 131.5q0 30 -8.5 53.5t-16 34t-31.5 34t-34 35.5q-44 -6 -76 -55.5t-44.5 -103t-12.5 -98.5q0 -54 12 -94q6 -19 16 -30t29 -18q25 -9 37 -9zM285 766q18 0 27 -11q18 -20 18 -46 q0 -22 -13 -36.5t-34 -14.5q-14 0 -25 10q-1 1 -4 3l-4.5 3t-4 2.5t-3.5 3t-3 3.5t-2.5 3.5t-1.5 4t-1.5 5t-0.5 5.5q0 37 8 50q9 15 31 15h13zM181 714q0 -12 -13 -25.5t-26 -16.5q-5 -1 -15 -1q-22 0 -37 16t-15 39q0 16 10.5 33.5t25.5 17.5q22 0 45 -28l15 -15 q10 -8 10 -20z" />
<glyph unicode="&#xd9;" horiz-adv-x="455" d="M326 41q-22 -41 -129 -41q-109 0 -143 59q-54 90 -54 230q0 20 2 56q0 1 1 27t1.5 31.5t2.5 29.5t3.5 33.5t4 30.5t6 32.5t8 28t11 29t13.5 23.5q10 14 32 14q26 0 47 -16q-3 -18 -10.5 -60.5t-11 -65.5t-8.5 -58.5t-7 -67t-2 -61.5q0 -27 4.5 -62.5t15 -77.5t32 -70.5 t50.5 -28.5q19 0 39.5 14.5t28.5 30.5q11 22 22 57q48 140 48 395v82q0 7 13 7q10 0 32.5 -5.5t30.5 -10.5q10 -8 12 -34q0 -12 1 -17q0 -11 0.5 -32t0.5 -32q0 -290 -97 -470zM123 788q2 0 3.5 -2t2.5 -2q12 -6 59 -38q18 -11 38.5 -30.5t20.5 -33.5t-11.5 -23.5 t-25.5 -9.5q-13 0 -21 7q-19 17 -36.5 28.5t-29.5 22t-31 33.5q3 2 3 6q0 2 -1 6t-1 7q0 7 11.5 18t18.5 11z" />
<glyph unicode="&#xda;" horiz-adv-x="455" d="M326 41q-22 -41 -129 -41q-109 0 -143 59q-54 90 -54 230q0 20 2 56q0 1 1 27t1.5 31.5t2.5 29.5t3.5 33.5t4 30.5t6 32.5t8 28t11 29t13.5 23.5q10 14 32 14q26 0 47 -16q-3 -18 -10.5 -60.5t-11 -65.5t-8.5 -58.5t-7 -67t-2 -61.5q0 -27 4.5 -62.5t15 -77.5t32 -70.5 t50.5 -28.5q19 0 39.5 14.5t28.5 30.5q11 22 22 57q48 140 48 395v82q0 7 13 7q10 0 32.5 -5.5t30.5 -10.5q10 -8 12 -34q0 -12 1 -17q0 -11 0.5 -32t0.5 -32q0 -290 -97 -470zM293 788q-2 0 -3 -2l-3 -2q-12 -6 -59 -38q-58 -39 -58 -64q0 -14 11 -23.5t25 -9.5q13 0 21 7 q19 17 37 28.5t30 22t31 33.5q-4 2 -4 6q0 2 1.5 6t1.5 7q0 7 -12 18t-19 11z" />
<glyph unicode="&#xdb;" horiz-adv-x="455" d="M326 41q-22 -41 -129 -41q-109 0 -143 59q-54 90 -54 230q0 20 2 56q0 1 1 27t1.5 31.5t2.5 29.5t3.5 33.5t4 30.5t6 32.5t8 28t11 29t13.5 23.5q10 14 32 14q26 0 47 -16q-3 -18 -10.5 -60.5t-11 -65.5t-8.5 -58.5t-7 -67t-2 -61.5q0 -27 4.5 -62.5t15 -77.5t32 -70.5 t50.5 -28.5q19 0 39.5 14.5t28.5 30.5q11 22 22 57q48 140 48 395v82q0 7 13 7q10 0 32.5 -5.5t30.5 -10.5q10 -8 12 -34q0 -12 1 -17q0 -11 0.5 -32t0.5 -32q0 -290 -97 -470zM95 694q0 12 9 20q1 1 13.5 12t18.5 17q8 8 51 48q38 -4 50 -10.5t31 -36.5q3 -5 10 -15t10 -15 q2 -2 8.5 -7.5t10.5 -10.5t4 -11q0 -12 -13.5 -23.5t-25.5 -11.5q-22 0 -31 22q-2 5 -4 9.5t-3.5 7t-2 4.5t-1.5 3.5t-1.5 2.5t-2.5 3l-3.5 3.5l-5.5 5.5l-7 7q-14 -6 -39 -25.5t-46 -19.5q-30 0 -30 21z" />
<glyph unicode="&#xdc;" horiz-adv-x="455" d="M326 41q-22 -41 -129 -41q-109 0 -143 59q-54 90 -54 230q0 20 2 56q0 1 1 27t1.5 31.5t2.5 29.5t3.5 33.5t4 30.5t6 32.5t8 28t11 29t13.5 23.5q10 14 32 14q26 0 47 -16q-3 -18 -10.5 -60.5t-11 -65.5t-8.5 -58.5t-7 -67t-2 -61.5q0 -27 4.5 -62.5t15 -77.5t32 -70.5 t50.5 -28.5q19 0 39.5 14.5t28.5 30.5q11 22 22 57q48 140 48 395v82q0 7 13 7q10 0 32.5 -5.5t30.5 -10.5q10 -8 12 -34q0 -12 1 -17q0 -11 0.5 -32t0.5 -32q0 -290 -97 -470zM314 780q18 0 27 -11q18 -20 18 -46q0 -22 -13 -36.5t-34 -14.5q-14 0 -25 10q-1 1 -4 3l-4.5 3 t-4 2.5t-3.5 3t-3 3.5t-2.5 3.5t-1.5 4t-1.5 5t-0.5 5.5q0 37 8 50q9 15 31 15h13zM210 728q0 -12 -13 -25.5t-26 -16.5q-5 -1 -15 -1q-22 0 -37 16t-15 39q0 16 10.5 33.5t25.5 17.5q22 0 45 -28l15 -15q10 -8 10 -20z" />
<glyph unicode="&#xe0;" horiz-adv-x="365" d="M101 280q12 0 34 -2t33 -2q66 0 66 57q0 21 -11 69l-2 8t-2 6.5t-3.5 5.5t-3.5 4.5t-4.5 5l-4.5 4.5t-6 5t-6 5q-7 5 -12 5t-12 -5q-20 -14 -25.5 -21.5t-7.5 -25.5t-6 -32q-3 -10 -16.5 -17t-25.5 -7q-11 0 -20.5 7.5t-9.5 18.5q0 3 1 4q5 33 7.5 44.5t9.5 28.5t21 40 q14 21 42 30q42 13 52 13q6 0 20 -4q1 -1 19 -8.5t28.5 -14t14.5 -13.5q14 -23 25 -56t11 -57q0 -23 -9 -86q-4 -37 -13.5 -80t-13.5 -68q-3 -22 12 -41q2 -2 8.5 -6t10.5 -9t4 -14q0 -7 -1.5 -12t-2 -8t-5 -7t-6 -5t-8.5 -5t-9 -5q-50 -30 -114 -30q-49 0 -91 15 q-34 12 -51.5 45t-17.5 71q0 51 21 84q2 3 6.5 10t7.5 11t8 10.5t9 10t9 8t11 6.5q20 9 29 9zM77 137l3 -24q6 -26 16.5 -37t36.5 -11q51 0 64 28q0 3 -3.5 10.5t-3.5 12.5q0 12 6.5 35.5t6.5 36.5q0 18 -6.5 24t-23.5 6h-24q-32 0 -52 -24t-20 -57zM91 704q2 0 3.5 -2 t2.5 -2q12 -6 59 -38q18 -11 38.5 -30.5t20.5 -33.5t-11.5 -23.5t-25.5 -9.5q-13 0 -21 7q-19 17 -36.5 28.5t-29.5 22t-31 33.5q3 2 3 6q0 2 -1 6t-1 7q0 7 11.5 18t18.5 11z" />
<glyph unicode="&#xe1;" horiz-adv-x="365" d="M101 280q12 0 34 -2t33 -2q66 0 66 57q0 21 -11 69l-2 8t-2 6.5t-3.5 5.5t-3.5 4.5t-4.5 5l-4.5 4.5t-6 5t-6 5q-7 5 -12 5t-12 -5q-20 -14 -25.5 -21.5t-7.5 -25.5t-6 -32q-3 -10 -16.5 -17t-25.5 -7q-11 0 -20.5 7.5t-9.5 18.5q0 3 1 4q5 33 7.5 44.5t9.5 28.5t21 40 q14 21 42 30q42 13 52 13q6 0 20 -4q1 -1 19 -8.5t28.5 -14t14.5 -13.5q14 -23 25 -56t11 -57q0 -23 -9 -86q-4 -37 -13.5 -80t-13.5 -68q-3 -22 12 -41q2 -2 8.5 -6t10.5 -9t4 -14q0 -7 -1.5 -12t-2 -8t-5 -7t-6 -5t-8.5 -5t-9 -5q-50 -30 -114 -30q-49 0 -91 15 q-34 12 -51.5 45t-17.5 71q0 51 21 84q2 3 6.5 10t7.5 11t8 10.5t9 10t9 8t11 6.5q20 9 29 9zM77 137l3 -24q6 -26 16.5 -37t36.5 -11q51 0 64 28q0 3 -3.5 10.5t-3.5 12.5q0 12 6.5 35.5t6.5 36.5q0 18 -6.5 24t-23.5 6h-24q-32 0 -52 -24t-20 -57zM256 719q-2 0 -3 -2 l-3 -2q-12 -6 -59 -38q-58 -39 -58 -64q0 -14 11 -23.5t25 -9.5q13 0 21 7q19 17 37 28.5t30 22t31 33.5q-4 2 -4 6q0 2 1.5 6t1.5 7q0 7 -12 18t-19 11z" />
<glyph unicode="&#xe2;" horiz-adv-x="365" d="M101 280q12 0 34 -2t33 -2q66 0 66 57q0 21 -11 69l-2 8t-2 6.5t-3.5 5.5t-3.5 4.5t-4.5 5l-4.5 4.5t-6 5t-6 5q-7 5 -12 5t-12 -5q-20 -14 -25.5 -21.5t-7.5 -25.5t-6 -32q-3 -10 -16.5 -17t-25.5 -7q-11 0 -20.5 7.5t-9.5 18.5q0 3 1 4q5 33 7.5 44.5t9.5 28.5t21 40 q14 21 42 30q42 13 52 13q6 0 20 -4q1 -1 19 -8.5t28.5 -14t14.5 -13.5q14 -23 25 -56t11 -57q0 -23 -9 -86q-4 -37 -13.5 -80t-13.5 -68q-3 -22 12 -41q2 -2 8.5 -6t10.5 -9t4 -14q0 -7 -1.5 -12t-2 -8t-5 -7t-6 -5t-8.5 -5t-9 -5q-50 -30 -114 -30q-49 0 -91 15 q-34 12 -51.5 45t-17.5 71q0 51 21 84q2 3 6.5 10t7.5 11t8 10.5t9 10t9 8t11 6.5q20 9 29 9zM77 137l3 -24q6 -26 16.5 -37t36.5 -11q51 0 64 28q0 3 -3.5 10.5t-3.5 12.5q0 12 6.5 35.5t6.5 36.5q0 18 -6.5 24t-23.5 6h-24q-32 0 -52 -24t-20 -57zM74 619q0 13 9 20 q1 1 13.5 12t18.5 17q8 8 51 48q38 -4 50 -10.5t31 -36.5q3 -4 10 -15t10 -15q2 -2 8.5 -7.5t10.5 -10.5t4 -11q0 -12 -13.5 -23.5t-25.5 -11.5q-22 0 -31 22q-2 5 -4 9.5t-3.5 7t-2 4.5t-1.5 3.5t-1.5 2.5t-2.5 3l-3.5 3.5l-5.5 5.5l-7 7q-15 -6 -39.5 -25.5t-45.5 -19.5 q-30 0 -30 21z" />
<glyph unicode="&#xe3;" horiz-adv-x="365" d="M101 280q12 0 34 -2t33 -2q66 0 66 57q0 21 -11 69l-2 8t-2 6.5t-3.5 5.5t-3.5 4.5t-4.5 5l-4.5 4.5t-6 5t-6 5q-7 5 -12 5t-12 -5q-20 -14 -25.5 -21.5t-7.5 -25.5t-6 -32q-3 -10 -16.5 -17t-25.5 -7q-11 0 -20.5 7.5t-9.5 18.5q0 3 1 4q5 33 7.5 44.5t9.5 28.5t21 40 q14 21 42 30q42 13 52 13q6 0 20 -4q1 -1 19 -8.5t28.5 -14t14.5 -13.5q14 -23 25 -56t11 -57q0 -23 -9 -86q-4 -37 -13.5 -80t-13.5 -68q-3 -22 12 -41q2 -2 8.5 -6t10.5 -9t4 -14q0 -7 -1.5 -12t-2 -8t-5 -7t-6 -5t-8.5 -5t-9 -5q-50 -30 -114 -30q-49 0 -91 15 q-34 12 -51.5 45t-17.5 71q0 51 21 84q2 3 6.5 10t7.5 11t8 10.5t9 10t9 8t11 6.5q20 9 29 9zM77 137l3 -24q6 -26 16.5 -37t36.5 -11q51 0 64 28q0 3 -3.5 10.5t-3.5 12.5q0 12 6.5 35.5t6.5 36.5q0 18 -6.5 24t-23.5 6h-24q-32 0 -52 -24t-20 -57zM267 583l3 -2 q-32 -10 -43 -10q-37 0 -56 33q-9 16 -17 21q-2 1 -5 3q-1 0 -3 1l-1 1q-4 0 -8 -2q-8 -2 -10 -11.5t-7 -19.5t-19 -14q-1 0 -5 -1l-4 -1q-10 0 -19.5 8t-9.5 17q0 23 6 34.5t23 29.5q18 20 38 20h4q3 0 8.5 1.5t9.5 1.5q10 0 28 -10t25 -19q1 -2 10 -14t10 -12q1 -1 8 -1 q10 0 10 12t6 23q7 9 31.5 4.5t21.5 -22.5q0 -2 -2 -12.5t-3 -14.5t-4 -12.5t-6 -13t-8 -10t-12 -8.5z" />
<glyph unicode="&#xe4;" horiz-adv-x="365" d="M101 280q12 0 34 -2t33 -2q66 0 66 57q0 21 -11 69l-2 8t-2 6.5t-3.5 5.5t-3.5 4.5t-4.5 5l-4.5 4.5t-6 5t-6 5q-7 5 -12 5t-12 -5q-20 -14 -25.5 -21.5t-7.5 -25.5t-6 -32q-3 -10 -16.5 -17t-25.5 -7q-11 0 -20.5 7.5t-9.5 18.5q0 3 1 4q5 33 7.5 44.5t9.5 28.5t21 40 q14 21 42 30q42 13 52 13q6 0 20 -4q1 -1 19 -8.5t28.5 -14t14.5 -13.5q14 -23 25 -56t11 -57q0 -23 -9 -86q-4 -37 -13.5 -80t-13.5 -68q-3 -22 12 -41q2 -2 8.5 -6t10.5 -9t4 -14q0 -7 -1.5 -12t-2 -8t-5 -7t-6 -5t-8.5 -5t-9 -5q-50 -30 -114 -30q-49 0 -91 15 q-34 12 -51.5 45t-17.5 71q0 51 21 84q2 3 6.5 10t7.5 11t8 10.5t9 10t9 8t11 6.5q20 9 29 9zM77 137l3 -24q6 -26 16.5 -37t36.5 -11q51 0 64 28q0 3 -3.5 10.5t-3.5 12.5q0 12 6.5 35.5t6.5 36.5q0 18 -6.5 24t-23.5 6h-24q-32 0 -52 -24t-20 -57zM266 676q18 0 27 -11 q18 -20 18 -46q0 -22 -13 -36.5t-34 -14.5q-14 0 -25 10q-1 1 -4 3l-4.5 3t-4 2.5t-3.5 3t-3 3.5t-2.5 3.5t-1.5 4t-1.5 5t-0.5 5.5q0 37 8 50q9 15 31 15h13zM162 624q0 -12 -13 -25.5t-26 -16.5q-5 -1 -15 -1q-22 0 -37 16t-15 39q0 16 10.5 33.5t25.5 17.5q22 0 45 -28 l15 -15q10 -8 10 -20z" />
<glyph unicode="&#xe5;" horiz-adv-x="365" d="M101 280q-9 0 -29 -9q-7 -3 -12.5 -7.5t-12 -11.5t-9.5 -11t-9.5 -14t-7.5 -12q-21 -33 -21 -84q0 -38 17.5 -71t51.5 -45q42 -15 91 -15q64 0 114 30q2 1 7.5 4.5t7.5 4.5t6 4t5 5l3 6t2.5 8t0.5 10q0 9 -4 14t-10.5 9t-8.5 6q-15 19 -12 41q4 25 13.5 68t13.5 80 q9 63 9 86q0 24 -11 57t-25 56q-4 7 -14.5 13.5t-28.5 14t-19 8.5q-14 4 -20 4q-10 0 -52 -13q-28 -9 -42 -30q-20 -32 -25.5 -50t-12.5 -63q-1 -1 -1 -4q0 -11 9.5 -18.5t20.5 -7.5q12 0 25.5 7t16.5 17q4 14 6 32t7.5 25.5t25.5 21.5q7 5 12 5t12 -5q2 -1 6 -4.5t5 -4.5 l4 -4t4.5 -4t3.5 -4t3 -5l2.5 -5t2 -6t1.5 -7q11 -48 11 -69q0 -57 -66 -57q-11 0 -33 2t-34 2zM77 137q0 33 20 57t52 24h24q17 0 23.5 -6t6.5 -24q0 -13 -6.5 -36.5t-6.5 -35.5q0 -5 3.5 -12.5t3.5 -10.5q-13 -28 -64 -28q-26 0 -36.5 11t-16.5 37q0 3 -1 7.5t-1.5 8.5 t-0.5 8z" />
<glyph unicode="&#xe7;" horiz-adv-x="318" d="M231 73q18 -54 -2 -114q-7 -22 -20.5 -32.5t-40.5 -22.5q-20 -8 -37 -8q-42 0 -71 27q-31 31 -22 73q6 29 25 29q21 1 42 -39q1 -1 8 -9q15 -6 18 -6t27 12q18 54 -8 82q-52 7 -86.5 46.5t-47 87.5t-12.5 104q0 51 11.5 86t45.5 62q29 23 59 23q40 0 132 -52 q21 -12 21 -34q0 -16 -12.5 -25t-28.5 -9q-13 0 -44.5 18t-55.5 18q-8 0 -12 -1q-5 -1 -9.5 -3t-7.5 -5.5t-4.5 -6t-3 -8.5l-2 -8t-1.5 -9.5t-1 -8.5q-8 -48 -8 -70q0 -84 57 -121q13 -8 27 -8q18 0 95 28l15 3q12 0 23 -10t11 -23q0 -31 -30 -46q-26 -13 -50 -20z" />
<glyph unicode="&#xe8;" horiz-adv-x="396" d="M43 216q0 15 10 90q5 34 15 67.5t28 67t46.5 54t63.5 20.5q25 0 45 -7l12 -4t15.5 -5.5t9.5 -6.5q22 -23 32.5 -40.5t20.5 -49.5q1 -4 1 -26.5t3 -24.5q2 -3 17.5 -9t18.5 -13q1 -3 1 -10q0 -31 -24 -39q-13 -5 -70 -5q-22 0 -67 5.5t-67 5.5q-14 0 -21 -1 q-12 -15 -12 -40q0 -12 3.5 -34.5t4.5 -29.5q6 -49 32 -66q2 -1 15.5 -10.5t19.5 -13t17.5 -8t20.5 -4.5q20 0 36.5 12t18.5 31q2 10 2 14t-1 13.5t-1 14.5q0 6 10 13.5t18 10.5q4 2 14 2q25 0 32.5 -14t7.5 -42q0 -66 -44 -95q-60 -40 -94 -37t-95 33q-48 24 -71.5 74.5 t-23.5 106.5zM159 372q0 -3 3.5 -7t6.5 -4q14 0 41.5 -5t41.5 -5q3 0 10.5 4.5t7.5 6.5q-5 28 -9.5 42t-6 17.5t-9 8.5t-10.5 8q-3 4 -30 4q-14 0 -30 -27.5t-16 -42.5zM114 701q2 0 3.5 -2t2.5 -2q12 -6 59 -38q18 -11 38.5 -30.5t20.5 -33.5t-11.5 -23.5t-25.5 -9.5 q-13 0 -21 7q-19 17 -36.5 28.5t-29.5 22t-31 33.5q3 1 3 6q0 2 -1 6t-1 7q0 7 11.5 18t18.5 11z" />
<glyph unicode="&#xe9;" horiz-adv-x="396" d="M43 216q0 15 10 90q5 34 15 67.5t28 67t46.5 54t63.5 20.5q25 0 45 -7l12 -4t15.5 -5.5t9.5 -6.5q22 -23 32.5 -40.5t20.5 -49.5q1 -4 1 -26.5t3 -24.5q2 -3 17.5 -9t18.5 -13q1 -3 1 -10q0 -31 -24 -39q-13 -5 -70 -5q-22 0 -67 5.5t-67 5.5q-14 0 -21 -1 q-12 -15 -12 -40q0 -12 3.5 -34.5t4.5 -29.5q6 -49 32 -66q2 -1 15.5 -10.5t19.5 -13t17.5 -8t20.5 -4.5q20 0 36.5 12t18.5 31q2 10 2 14t-1 13.5t-1 14.5q0 6 10 13.5t18 10.5q4 2 14 2q25 0 32.5 -14t7.5 -42q0 -66 -44 -95q-60 -40 -94 -37t-95 33q-48 24 -71.5 74.5 t-23.5 106.5zM159 372q0 -3 3.5 -7t6.5 -4q14 0 41.5 -5t41.5 -5q3 0 10.5 4.5t7.5 6.5q-5 28 -9.5 42t-6 17.5t-9 8.5t-10.5 8q-3 4 -30 4q-14 0 -30 -27.5t-16 -42.5zM310 710q-2 0 -3 -2l-3 -2q-12 -6 -59 -38q-58 -39 -58 -64q0 -14 11 -23.5t25 -9.5q13 0 21 7 q19 17 37 28.5t30 22t31 33.5q-4 2 -4 6q0 2 1.5 6t1.5 7q0 7 -12 18t-19 11z" />
<glyph unicode="&#xea;" horiz-adv-x="396" d="M43 216q0 15 10 90q5 34 15 67.5t28 67t46.5 54t63.5 20.5q25 0 45 -7l12 -4t15.5 -5.5t9.5 -6.5q22 -23 32.5 -40.5t20.5 -49.5q1 -4 1 -26.5t3 -24.5q2 -3 17.5 -9t18.5 -13q1 -3 1 -10q0 -31 -24 -39q-13 -5 -70 -5q-22 0 -67 5.5t-67 5.5q-14 0 -21 -1 q-12 -15 -12 -40q0 -12 3.5 -34.5t4.5 -29.5q6 -49 32 -66q2 -1 15.5 -10.5t19.5 -13t17.5 -8t20.5 -4.5q20 0 36.5 12t18.5 31q2 10 2 14t-1 13.5t-1 14.5q0 6 10 13.5t18 10.5q4 2 14 2q25 0 32.5 -14t7.5 -42q0 -66 -44 -95q-60 -40 -94 -37t-95 33q-48 24 -71.5 74.5 t-23.5 106.5zM159 372q0 -3 3.5 -7t6.5 -4q14 0 41.5 -5t41.5 -5q3 0 10.5 4.5t7.5 6.5q-5 28 -9.5 42t-6 17.5t-9 8.5t-10.5 8q-3 4 -30 4q-14 0 -30 -27.5t-16 -42.5zM106 616q0 12 9 20q1 1 13.5 12t18.5 17q8 8 51 48q38 -4 50 -10.5t31 -36.5q3 -4 10 -14.5t10 -15.5 q2 -2 8.5 -7.5t10.5 -10.5t4 -11q0 -12 -13.5 -23.5t-25.5 -11.5q-22 0 -31 22q-2 5 -4 9.5t-3.5 7t-2 4.5t-1.5 3.5t-1.5 2.5t-2.5 3l-3.5 3.5l-5.5 5.5l-7 7q-14 -6 -39 -25.5t-46 -19.5q-30 0 -30 21z" />
<glyph unicode="&#xeb;" horiz-adv-x="396" d="M43 216q0 15 10 90q5 34 15 67.5t28 67t46.5 54t63.5 20.5q25 0 45 -7l12 -4t15.5 -5.5t9.5 -6.5q22 -23 32.5 -40.5t20.5 -49.5q1 -4 1 -26.5t3 -24.5q2 -3 17.5 -9t18.5 -13q1 -3 1 -10q0 -31 -24 -39q-13 -5 -70 -5q-22 0 -67 5.5t-67 5.5q-14 0 -21 -1 q-12 -15 -12 -40q0 -12 3.5 -34.5t4.5 -29.5q6 -49 32 -66q2 -1 15.5 -10.5t19.5 -13t17.5 -8t20.5 -4.5q20 0 36.5 12t18.5 31q2 10 2 14t-1 13.5t-1 14.5q0 6 10 13.5t18 10.5q4 2 14 2q25 0 32.5 -14t7.5 -42q0 -66 -44 -95q-60 -40 -94 -37t-95 33q-48 24 -71.5 74.5 t-23.5 106.5zM159 372q0 -3 3.5 -7t6.5 -4q14 0 41.5 -5t41.5 -5q3 0 10.5 4.5t7.5 6.5q-5 28 -9.5 42t-6 17.5t-9 8.5t-10.5 8q-3 4 -30 4q-14 0 -30 -27.5t-16 -42.5zM311 676q18 0 27 -11q18 -20 18 -46q0 -22 -13 -36.5t-34 -14.5q-14 0 -25 10q-1 1 -4 3l-4.5 3t-4 2.5 t-3.5 3t-3 3.5t-2.5 3.5t-1.5 4t-1.5 5t-0.5 5.5q0 37 8 50q9 15 31 15h13zM207 624q0 -12 -13 -25.5t-26 -16.5q-5 -1 -15 -1q-22 0 -37 16t-15 39q0 16 10.5 33.5t25.5 17.5q22 0 45 -28l15 -15q10 -8 10 -20z" />
<glyph unicode="&#xec;" horiz-adv-x="234" d="M138 384q15 0 25.5 -8t10.5 -21q0 -9 -9 -29q-3 -24 -3 -49q0 -37 6.5 -109t6.5 -109q0 -18 -1 -27q-4 -32 -35 -32q-20 0 -33 9q-14 9 -14 32q-1 19 -6 88t-5 107q0 7 0.5 21.5t0.5 22.5q0 5 0.5 22t1.5 25t4 20.5t11 19.5t21 11q4 1 6 2t2.5 2t3 1.5t6.5 0.5zM112 581 q2 0 3.5 -2t2.5 -2q12 -6 59 -38q18 -11 38.5 -30.5t20.5 -33.5t-11.5 -23.5t-25.5 -9.5q-13 0 -21 7q-19 17 -36.5 28.5t-29.5 22t-31 33.5q3 1 3 6q0 2 -1 6t-1 7q0 7 11.5 18t18.5 11z" />
<glyph unicode="&#xed;" horiz-adv-x="234" d="M138 384q15 0 25.5 -8t10.5 -21q0 -9 -9 -29q-3 -24 -3 -49q0 -37 6.5 -109t6.5 -109q0 -18 -1 -27q-4 -32 -35 -32q-20 0 -33 9q-14 9 -14 32q-1 19 -6 88t-5 107q0 7 0.5 21.5t0.5 22.5q0 5 0.5 22t1.5 25t4 20.5t11 19.5t21 11q4 1 6 2t2.5 2t3 1.5t6.5 0.5zM204 577 q-2 0 -3 -2l-3 -2q-12 -6 -59 -38q-58 -39 -58 -64q0 -14 11 -23.5t25 -9.5q13 0 21 7q19 17 37 28.5t30 22t31 33.5q-4 2 -4 6q0 2 1.5 6t1.5 7q0 7 -12 18t-19 11z" />
<glyph unicode="&#xee;" horiz-adv-x="234" d="M138 384q15 0 25.5 -8t10.5 -21q0 -9 -9 -29q-3 -24 -3 -49q0 -37 6.5 -109t6.5 -109q0 -18 -1 -27q-4 -32 -35 -32q-20 0 -33 9q-14 9 -14 32q-1 19 -6 88t-5 107q0 7 0.5 21.5t0.5 22.5q0 5 0.5 22t1.5 25t4 20.5t11 19.5t21 11q4 1 6 2t2.5 2t3 1.5t6.5 0.5zM81 501 q0 13 9 20q1 1 13.5 12t18.5 17q8 8 51 48q38 -4 50 -10.5t31 -36.5q3 -5 9.5 -15.5t10.5 -14.5q2 -2 8.5 -7.5t10.5 -10.5t4 -11q0 -12 -13.5 -23.5t-25.5 -11.5q-22 0 -31 22q-2 5 -4 9.5t-3.5 7t-2 4.5t-1.5 3.5t-1.5 2.5t-2.5 3l-3.5 3.5l-5.5 5.5l-7 7 q-14 -6 -39 -25.5t-46 -19.5q-30 0 -30 21z" />
<glyph unicode="&#xef;" horiz-adv-x="234" d="M138 384q15 0 25.5 -8t10.5 -21q0 -9 -9 -29q-3 -24 -3 -49q0 -37 6.5 -109t6.5 -109q0 -18 -1 -27q-4 -32 -35 -32q-20 0 -33 9q-14 9 -14 32q-1 19 -6 88t-5 107q0 7 0.5 21.5t0.5 22.5q0 5 0.5 22t1.5 25t4 20.5t11 19.5t21 11q4 1 6 2t2.5 2t3 1.5t6.5 0.5zM291 546 q18 0 27 -11q18 -20 18 -46q0 -22 -13 -36.5t-34 -14.5q-14 0 -25 10q-1 1 -4 3l-4.5 3t-4 2.5t-3.5 3t-3 3.5t-2.5 3.5t-1.5 4t-1.5 5t-0.5 5.5q0 37 8 50q9 15 31 15h13zM187 494q0 -12 -13 -25.5t-26 -16.5q-5 -1 -15 -1q-22 0 -37 16t-15 39q0 16 10.5 33.5t25.5 17.5 q22 0 45 -28l15 -15q10 -8 10 -20z" />
<glyph unicode="&#xf1;" horiz-adv-x="334" d="M70 535q38 0 38 -28q0 -6 -2.5 -18t-2.5 -18q12 1 41 5.5t44 4.5q36 0 55 -24q65 -82 65 -183q0 -22 -2.5 -65.5t-2.5 -65.5q0 -33 1 -50q1 -6 4.5 -24.5t3.5 -28.5q0 -19 -12.5 -29.5t-31.5 -10.5q-11 0 -18.5 3t-12 10t-7.5 13t-3.5 17t-1 17.5t0 18.5t0.5 16 q0 23 2.5 69.5t2.5 69.5q0 72 -32 148q-12 29 -23 33q-4 1 -8 1q-18 0 -40.5 -8t-24.5 -22q-6 -38 -6 -98q0 -28 3.5 -84t3.5 -84q0 -59 -4 -81q-2 -10 -13.5 -15.5t-22.5 -5.5q-15 0 -25 9.5t-11 24.5v153q0 36 -4 78q-9 108 -4 142q3 36 3 41t-1 15t-1 15q0 39 49 39z M274 580l3 -2q-33 -10 -43 -10q-37 0 -56 33q-9 16 -17 21q-2 1 -5 3q-1 0 -2 1l-2 1q-4 0 -8 -2q-8 -2 -10 -11.5t-7 -19.5t-19 -14l-4 -1q-4 -1 -5 -1q-10 0 -19.5 8t-9.5 17q0 23 6 34.5t23 29.5q18 20 38 20h4q3 0 8.5 1.5t9.5 1.5q10 0 28 -10t25 -19q1 -2 10 -14 t10 -12q1 -1 8 -1q10 0 10 12t6 23q7 9 31.5 4.5t21.5 -22.5q0 -2 -2 -12.5t-3 -14.5t-4 -12.5t-6 -13t-8 -10t-12 -8.5z" />
<glyph unicode="&#xf2;" horiz-adv-x="372" d="M194 495q88 0 110 -41q38 -76 38 -144q0 -78 -55 -123q-36 -29 -100 -29q-78 0 -143 60q-41 37 -41 102q0 34 10 76q14 54 58 75q52 24 123 24zM147 432q-31 0 -42 -19q-19 -36 -19 -78q0 -47 33 -80t79 -33q32 0 46.5 21.5t14.5 53.5t-13 78q-17 55 -58 55q-7 0 -21 1 t-20 1zM73 688q2 0 3.5 -2t2.5 -2q12 -6 59 -38q18 -11 38.5 -30.5t20.5 -33.5t-11.5 -23.5t-25.5 -9.5q-13 0 -21 7q-19 17 -36.5 28.5t-29.5 22t-31 33.5q3 2 3 6q0 2 -1 6t-1 7q0 7 11.5 18t18.5 11z" />
<glyph unicode="&#xf3;" horiz-adv-x="372" d="M194 495q88 0 110 -41q38 -76 38 -144q0 -78 -55 -123q-36 -29 -100 -29q-78 0 -143 60q-41 37 -41 102q0 34 10 76q14 54 58 75q52 24 123 24zM147 432q-31 0 -42 -19q-19 -36 -19 -78q0 -47 33 -80t79 -33q32 0 46.5 21.5t14.5 53.5t-13 78q-17 55 -58 55q-7 0 -21 1 t-20 1zM270 702q-2 0 -3 -2l-3 -2q-12 -6 -59 -38q-58 -39 -58 -64q0 -14 11 -23.5t25 -9.5q13 0 21 7q19 17 37 28.5t30 22t31 33.5q-4 2 -4 6q0 2 1.5 6t1.5 7q0 7 -12 18t-19 11z" />
<glyph unicode="&#xf4;" horiz-adv-x="372" d="M194 495q88 0 110 -41q38 -76 38 -144q0 -78 -55 -123q-36 -29 -100 -29q-78 0 -143 60q-41 37 -41 102q0 34 10 76q14 54 58 75q52 24 123 24zM147 432q-31 0 -42 -19q-19 -36 -19 -78q0 -47 33 -80t79 -33q32 0 46.5 21.5t14.5 53.5t-13 78q-17 55 -58 55q-7 0 -21 1 t-20 1zM76 590q0 12 9 20q1 1 13.5 12t18.5 17q8 8 51 48q38 -4 50 -10.5t31 -36.5q4 -4 10.5 -15t9.5 -15q2 -2 8.5 -7.5t10.5 -10.5t4 -11q0 -12 -13.5 -23.5t-25.5 -11.5q-22 0 -31 22q-2 5 -4 9.5t-3.5 7t-2 4.5t-1.5 3.5t-1.5 2.5t-2.5 3l-3.5 3.5l-5.5 5.5l-7 7 q-14 -6 -39 -25.5t-46 -19.5q-30 0 -30 21z" />
<glyph unicode="&#xf5;" horiz-adv-x="372" d="M194 495q88 0 110 -41q38 -76 38 -144q0 -78 -55 -123q-36 -29 -100 -29q-78 0 -143 60q-41 37 -41 102q0 34 10 76q14 54 58 75q52 24 123 24zM147 432q-31 0 -42 -19q-19 -36 -19 -78q0 -47 33 -80t79 -33q32 0 46.5 21.5t14.5 53.5t-13 78q-17 55 -58 55q-7 0 -21 1 t-20 1zM258 562l3 -2q-32 -10 -43 -10q-37 0 -56 33q-9 16 -17 21q-2 1 -5 3q-1 0 -2 1l-2 1q-4 0 -8 -2q-8 -2 -10 -11.5t-7 -19.5t-19 -14l-4 -1q-4 -1 -5 -1q-10 0 -19.5 8t-9.5 17q0 23 6 34.5t23 29.5q18 20 38 20h4q3 0 8.5 1.5t9.5 1.5q10 0 28 -10t25 -19 q1 -2 10 -14t10 -12q1 -1 8 -1q10 0 10 12t6 23q7 9 31.5 4.5t21.5 -22.5q0 -2 -2 -12.5t-3 -14.5t-4 -12.5t-6 -13t-8 -10t-12 -8.5z" />
<glyph unicode="&#xf6;" horiz-adv-x="372" d="M194 495q88 0 110 -41q38 -76 38 -144q0 -78 -55 -123q-36 -29 -100 -29q-78 0 -143 60q-41 37 -41 102q0 34 10 76q14 54 58 75q52 24 123 24zM147 432q-31 0 -42 -19q-19 -36 -19 -78q0 -47 33 -80t79 -33q32 0 46.5 21.5t14.5 53.5t-13 78q-17 55 -58 55q-7 0 -21 1 t-20 1zM268 656q18 0 27 -11q18 -20 18 -46q0 -22 -13 -36.5t-34 -14.5q-14 0 -25 10q-1 1 -4 3l-4.5 3t-4 2.5t-3.5 3t-3 3.5t-2.5 3.5t-1.5 4t-1.5 5t-0.5 5.5q0 37 8 50q9 15 31 15h13zM164 604q0 -12 -13 -25.5t-26 -16.5q-5 -1 -15 -1q-22 0 -37 16t-15 39 q0 16 10.5 33.5t25.5 17.5q22 0 45 -28l15 -15q10 -8 10 -20z" />
<glyph unicode="&#xf9;" horiz-adv-x="369" d="M29 327q0 13 -1 41t-1 42v7q0 18 0.5 29t4.5 27t13.5 24t25.5 8q15 0 24.5 -9.5t9.5 -23.5q0 -8 -2 -23.5t-2 -22.5q0 -22 -2 -67t-2 -67q0 -93 22 -150q7 -17 25 -27t37 -10q9 0 17 3q34 10 48 72.5t14 117.5q0 85 -34 172q-2 8 -2 13q0 15 14 24t29 9t26 -8t17.5 -25 t9.5 -29t6 -34t4 -26q5 -24 5 -59q0 -14 -1 -42t-1 -41q0 -4 0.5 -11t0.5 -10q0 -2 -5 -5.5t-5 -4.5q0 -3 0.5 -7.5t0.5 -6.5q0 -26 -13 -61q-30 -78 -117 -98q-12 -3 -25 -3q-30 0 -101 31q-2 1 -5.5 2.5t-5 2.5t-4.5 2.5t-4.5 2.5t-3.5 3t-3.5 4.5t-2.5 5.5l-2 6 q-12 46 -12 122q0 16 1.5 49.5t1.5 50.5zM71 698q2 0 3.5 -2t2.5 -2q12 -6 59 -38q18 -11 38.5 -30.5t20.5 -33.5t-11.5 -23.5t-25.5 -9.5q-13 0 -21 7q-19 17 -36.5 28.5t-29.5 22t-31 33.5q3 2 3 6q0 2 -1 6t-1 7q0 7 11.5 18t18.5 11z" />
<glyph unicode="&#xfa;" horiz-adv-x="369" d="M29 327q0 13 -1 41t-1 42v7q0 18 0.5 29t4.5 27t13.5 24t25.5 8q15 0 24.5 -9.5t9.5 -23.5q0 -8 -2 -23.5t-2 -22.5q0 -22 -2 -67t-2 -67q0 -93 22 -150q7 -17 25 -27t37 -10q9 0 17 3q34 10 48 72.5t14 117.5q0 85 -34 172q-2 8 -2 13q0 15 14 24t29 9t26 -8t17.5 -25 t9.5 -29t6 -34t4 -26q5 -24 5 -59q0 -14 -1 -42t-1 -41q0 -4 0.5 -11t0.5 -10q0 -2 -5 -5.5t-5 -4.5q0 -3 0.5 -7.5t0.5 -6.5q0 -26 -13 -61q-30 -78 -117 -98q-12 -3 -25 -3q-30 0 -101 31q-2 1 -5.5 2.5t-5 2.5t-4.5 2.5t-4.5 2.5t-3.5 3t-3.5 4.5t-2.5 5.5l-2 6 q-12 46 -12 122q0 16 1.5 49.5t1.5 50.5zM261 710q-2 0 -3 -2l-3 -2q-12 -6 -59 -38q-58 -39 -58 -64q0 -14 11 -23.5t25 -9.5q13 0 21 7q19 17 37 28.5t30 22t31 33.5q-4 2 -4 6q0 2 1.5 6t1.5 7q0 7 -12 18t-19 11z" />
<glyph unicode="&#xfb;" horiz-adv-x="369" d="M29 327q0 13 -1 41t-1 42v7q0 18 0.5 29t4.5 27t13.5 24t25.5 8q15 0 24.5 -9.5t9.5 -23.5q0 -8 -2 -23.5t-2 -22.5q0 -22 -2 -67t-2 -67q0 -93 22 -150q7 -17 25 -27t37 -10q9 0 17 3q34 10 48 72.5t14 117.5q0 85 -34 172q-2 8 -2 13q0 15 14 24t29 9t26 -8t17.5 -25 t9.5 -29t6 -34t4 -26q5 -24 5 -59q0 -14 -1 -42t-1 -41q0 -4 0.5 -11t0.5 -10q0 -2 -5 -5.5t-5 -4.5q0 -3 0.5 -7.5t0.5 -6.5q0 -26 -13 -61q-30 -78 -117 -98q-12 -3 -25 -3q-30 0 -101 31q-2 1 -5.5 2.5t-5 2.5t-4.5 2.5t-4.5 2.5t-3.5 3t-3.5 4.5t-2.5 5.5l-2 6 q-12 46 -12 122q0 16 1.5 49.5t1.5 50.5zM68 616q0 12 9 20q1 1 13.5 12t18.5 17q8 8 51 48q38 -4 50 -10.5t31 -36.5q3 -4 9.5 -14.5t10.5 -15.5q2 -2 8.5 -7.5t10.5 -10.5t4 -11q0 -12 -13.5 -23.5t-25.5 -11.5q-22 0 -31 22q-2 5 -4 9.5t-3.5 7t-2 4.5t-1.5 3.5t-1.5 2.5 t-2.5 3l-3.5 3.5l-5.5 5.5l-7 7q-14 -6 -39 -25.5t-46 -19.5q-30 0 -30 21z" />
<glyph unicode="&#xfc;" horiz-adv-x="369" d="M29 327q0 13 -1 41t-1 42v7q0 18 0.5 29t4.5 27t13.5 24t25.5 8q15 0 24.5 -9.5t9.5 -23.5q0 -8 -2 -23.5t-2 -22.5q0 -22 -2 -67t-2 -67q0 -93 22 -150q7 -17 25 -27t37 -10q9 0 17 3q34 10 48 72.5t14 117.5q0 85 -34 172q-2 8 -2 13q0 15 14 24t29 9t26 -8t17.5 -25 t9.5 -29t6 -34t4 -26q5 -24 5 -59q0 -14 -1 -42t-1 -41q0 -4 0.5 -11t0.5 -10q0 -2 -5 -5.5t-5 -4.5q0 -3 0.5 -7.5t0.5 -6.5q0 -26 -13 -61q-30 -78 -117 -98q-12 -3 -25 -3q-30 0 -101 31q-2 1 -5.5 2.5t-5 2.5t-4.5 2.5t-4.5 2.5t-3.5 3t-3.5 4.5t-2.5 5.5l-2 6 q-12 46 -12 122q0 16 1.5 49.5t1.5 50.5zM254 670q18 0 27 -11q18 -20 18 -46q0 -22 -13 -36.5t-34 -14.5q-14 0 -25 10q-1 1 -4 3l-4.5 3t-4 2.5t-3.5 3t-3 3.5t-2.5 3.5t-1.5 4t-1.5 5t-0.5 5.5q0 37 8 50q9 15 31 15h13zM150 618q0 -12 -13 -25.5t-26 -16.5q-5 -1 -15 -1 q-22 0 -37 16t-15 39q0 16 10.5 33.5t25.5 17.5q22 0 45 -28l15 -15q10 -8 10 -20z" />
<glyph unicode="&#xff;" horiz-adv-x="302" d="M13 520q0 -51 6 -151q12 -169 72 -242q6 -6 35 -17q3 -1 5.5 -2t5.5 -3t5 -3q3 -2 12 -3.5t16.5 -3.5t8.5 -6q5 -13 5 -56q0 -88 -71 -121h-3q-15 0 -31 16q-5 5 -11.5 18t-13.5 23t-14 10q-2 0 -5.5 -1t-8.5 -3t-7 -3q-22 -6 -22 -34q0 -37 32.5 -60.5t71.5 -23.5 q35 0 60 14q13 8 24.5 17t20 16.5t16 19.5t12 19t9 22t6.5 21.5t5 24.5l4 24t3 27.5t3 26.5q2 11 18.5 16.5t32 15.5t15.5 32q0 15 -5 22t-20 7q-4 0 -12.5 -0.5t-12.5 -0.5q-27 0 -27 33q0 10 4 29.5t4 29.5v25q0 73 19 244q-17 5 -33 5q-33 0 -39 -24 q-13 -49 -17.5 -106.5t-6.5 -127.5t-5 -109q-30 8 -34 13q-56 81 -56 245q0 17 1 51.5t1 52.5q-19 11 -42 11q-36 0 -36 -30z" />
<glyph unicode="&#x131;" horiz-adv-x="234" d="M138 384q15 0 25.5 -8t10.5 -21q0 -9 -9 -29q-3 -24 -3 -49q0 -37 6.5 -109t6.5 -109q0 -18 -1 -27q-4 -32 -35 -32q-20 0 -33 9q-14 9 -14 32q-1 19 -6 88t-5 107q0 7 0.5 21.5t0.5 22.5q0 5 0.5 22t1.5 25t4 20.5t11 19.5t21 11q4 1 6 2t2.5 2t3 1.5t6.5 0.5z" />
<glyph unicode="&#x178;" horiz-adv-x="383" d="M314 301q12 0 44 24q12 10 12 19l1 4q1 21 -40 49.5t-51 46.5q2 7 27 69t25 96q0 8 -2 20q-3 11 -33 11q-20 0 -33 -12.5t-16.5 -23.5t-9.5 -35q-10 -42 -33 -64q-21 14 -41 34q-4 4 -18 18.5t-24.5 24t-24.5 21.5t-27 18t-24 6q-18 0 -32 -11.5t-14 -29.5q0 -19 29 -44 t63 -47t63 -51.5t29 -56.5q0 -19 -14 -50t-16 -47q-3 -31 -23 -114t-20 -129q0 -24 2 -36q2 -11 15 -11q2 0 47 9q10 2 18 13l6 12q1 2 2.5 5.5t2.5 6.5t1 6q0 6 -3 17t-3 17q0 2 0.5 5t0.5 4q5 25 13 75.5t17 89t23 72.5q18 -5 28 -14q25 -17 33 -17z" />
<glyph unicode="&#x2018;" horiz-adv-x="172" d="M121 579q0 30 11 43q13 18 35 18q10 0 11 -7q13 -39 13 -76q0 -32 -13 -62q-14 -37 -39 -37q-13 0 -19.5 10.5t-6.5 24.5q0 9 3.5 26.5t3.5 25.5q1 5 1 34z" />
<glyph unicode="&#x2019;" horiz-adv-x="172" d="M121 579q0 30 11 43q13 18 35 18q10 0 11 -7q13 -39 13 -76q0 -32 -13 -62q-14 -37 -39 -37q-13 0 -19.5 10.5t-6.5 24.5q0 9 3.5 26.5t3.5 25.5q1 5 1 34z" />
<glyph unicode="&#x201c;" horiz-adv-x="172" d="M0 584q0 18 13 30t31 12t24 -15q7 -16 10 -51.5t4 -39.5v-5q0 -17 -15 -31t-32 -14q-8 0 -13.5 2.5t-7 9t-2 11t0 14t0.5 11.5q0 12 -6.5 33t-6.5 33zM121 579q0 30 11 43q13 18 35 18q10 0 11 -7q13 -39 13 -76q0 -32 -13 -62q-14 -37 -39 -37q-13 0 -19.5 10.5 t-6.5 24.5q0 9 3.5 26.5t3.5 25.5q1 5 1 34z" />
<glyph unicode="&#x201d;" horiz-adv-x="172" d="M0 584q0 18 13 30t31 12t24 -15q7 -16 10 -51.5t4 -39.5v-5q0 -17 -15 -31t-32 -14q-8 0 -13.5 2.5t-7 9t-2 11t0 14t0.5 11.5q0 12 -6.5 33t-6.5 33zM121 579q0 30 11 43q13 18 35 18q10 0 11 -7q13 -39 13 -76q0 -32 -13 -62q-14 -37 -39 -37q-13 0 -19.5 10.5 t-6.5 24.5q0 9 3.5 26.5t3.5 25.5q1 5 1 34z" />
<glyph unicode="&#x2022;" horiz-adv-x="397" d="M6 400q4 18 14.5 49.5t14.5 45.5q1 4 3 8t4 6.5t6.5 5t7 4t8.5 3t7.5 2t8 2.5t7.5 2q95 33 203 -24q42 -23 54.5 -73.5t2.5 -110.5q-11 -61 -55.5 -103.5t-115.5 -81.5q-20 -11 -33 0q-20 33 -33 33q-9 1 -18 5t-15 8t-13 10.5t-10 10.5t-8.5 10.5t-6.5 7.5 q-56 72 -33 180z" />
<glyph unicode="&#x222b;" horiz-adv-x="339" d="M23 378q0 70 39 132.5t100 98.5q74 44 147 25q23 -3 30.5 -31t-13.5 -44q0 -155 -17 -531q0 -12 -17 -21q-77 -15 -126 5q-64 18 -114 71q-33 37 -50 122q-9 46 38 110q6 9 -5.5 30t-11.5 33zM124 420q-7 -20 8 -42q20 -22 53.5 -20.5t43.5 24.5q20 70 -8 151 q-66 -22 -97 -113zM103 218q0 -41 25.5 -75t66.5 -47q2 0 5.5 -0.5t6 -0.5h5t3.5 1.5t1 3.5q-1 20 3.5 57t5.5 57.5t-9 53.5h-8q-23 0 -35.5 -1t-31.5 -5t-28.5 -15t-9.5 -29z" />
<glyph unicode="&#x25fc;" horiz-adv-x="500" d="M0 500h500v-500h-500v500z" />
</font>
</defs>
</svg>
